<svg width="623" height="171" viewBox="0 0 623 171" fill="none" xmlns="http://www.w3.org/2000/svg">
<rect y="7" width="623" height="164" rx="8" fill="#E8E8E8"/>
<rect width="623" height="164" rx="8" fill="#FBFBFB"/>
<path d="M213.625 55.1094L207.648 42.875H199.961L209.547 59.7969L199.703 77H207.484L213.719 64.5781L219.977 77H227.664L217.82 59.7969L227.43 42.875H219.695L213.625 55.1094ZM237.953 71.6797V42.875H231.344V77H253.938V71.6797H237.953ZM277.445 68.0938C277.445 68.7031 277.32 69.2656 277.07 69.7812C276.82 70.2812 276.461 70.7109 275.992 71.0703C275.523 71.4297 274.945 71.7109 274.258 71.9141C273.586 72.1172 272.812 72.2188 271.938 72.2188C270.953 72.2188 270.047 72.1094 269.219 71.8906C268.406 71.6719 267.711 71.3281 267.133 70.8594C266.539 70.3906 266.078 69.7891 265.75 69.0547C265.422 68.3203 265.242 67.4375 265.211 66.4062H258.742C258.742 68.1719 259.078 69.7109 259.75 71.0234C260.438 72.3359 261.367 73.4766 262.539 74.4453C263.773 75.4297 265.219 76.1797 266.875 76.6953C268.547 77.1953 270.234 77.4453 271.938 77.4453C273.672 77.4453 275.273 77.2422 276.742 76.8359C278.211 76.4141 279.477 75.7969 280.539 74.9844C281.602 74.1875 282.43 73.2109 283.023 72.0547C283.633 70.8828 283.938 69.5469 283.938 68.0469C283.938 66.3125 283.539 64.7812 282.742 63.4531C281.945 62.125 280.875 60.9609 279.531 59.9609C278.641 59.3516 277.664 58.8125 276.602 58.3438C275.539 57.875 274.422 57.4766 273.25 57.1484C272.156 56.8516 271.172 56.5312 270.297 56.1875C269.438 55.8438 268.703 55.4609 268.094 55.0391C267.484 54.6328 267.016 54.1719 266.688 53.6562C266.375 53.1406 266.219 52.5625 266.219 51.9219C266.219 51.3125 266.336 50.75 266.57 50.2344C266.82 49.7031 267.18 49.2422 267.648 48.8516C268.117 48.4766 268.688 48.1875 269.359 47.9844C270.047 47.7656 270.828 47.6562 271.703 47.6562C272.656 47.6562 273.484 47.7891 274.188 48.0547C274.906 48.3047 275.508 48.6562 275.992 49.1094C276.461 49.5781 276.812 50.1328 277.047 50.7734C277.297 51.4141 277.438 52.1172 277.469 52.8828H283.891C283.891 51.3516 283.594 49.9453 283 48.6641C282.406 47.3828 281.578 46.2734 280.516 45.3359C279.453 44.4141 278.18 43.6953 276.695 43.1797C275.227 42.6641 273.602 42.4062 271.82 42.4062C270.102 42.4062 268.508 42.6328 267.039 43.0859C265.57 43.5234 264.297 44.1562 263.219 44.9844C262.141 45.8125 261.297 46.8125 260.688 47.9844C260.078 49.1562 259.773 50.4609 259.773 51.8984C259.773 53.1484 260 54.3047 260.453 55.3672C260.922 56.4297 261.609 57.3984 262.516 58.2734C263.422 59.1484 264.586 59.9531 266.008 60.6875C267.445 61.4219 269.109 62.0469 271 62.5625C272.219 62.8906 273.234 63.25 274.047 63.6406C274.875 64.0156 275.547 64.4297 276.062 64.8828C276.562 65.3516 276.914 65.8516 277.117 66.3828C277.336 66.9141 277.445 67.4844 277.445 68.0938ZM300.109 55.1094L294.133 42.875H286.445L296.031 59.7969L286.188 77H293.969L300.203 64.5781L306.461 77H314.148L304.305 59.7969L313.914 42.875H306.18L300.109 55.1094ZM350.5 51.6406H344.898V77H350.828V58.0156C350.906 57.8125 350.992 57.625 351.086 57.4531C351.18 57.2812 351.289 57.1328 351.414 57.0078C351.586 56.8359 351.781 56.7031 352 56.6094C352.219 56.5156 352.469 56.4688 352.75 56.4688C353 56.4688 353.234 56.5078 353.453 56.5859C353.672 56.6484 353.867 56.7656 354.039 56.9375C354.195 57.1094 354.32 57.3516 354.414 57.6641C354.508 57.9766 354.555 58.375 354.555 58.8594V77H360.297V58.2969C360.297 58.1094 360.297 57.9609 360.297 57.8516C360.297 57.7422 360.297 57.6719 360.297 57.6406C360.375 57.4688 360.469 57.3203 360.578 57.1953C360.688 57.0547 360.812 56.9297 360.953 56.8203C361.125 56.7109 361.305 56.625 361.492 56.5625C361.695 56.5 361.922 56.4688 362.172 56.4688C362.406 56.4688 362.633 56.5078 362.852 56.5859C363.086 56.6484 363.289 56.7656 363.461 56.9375C363.633 57.125 363.766 57.375 363.859 57.6875C363.969 58 364.023 58.3984 364.023 58.8828V77H369.953V58.9062C369.953 57.5 369.812 56.3125 369.531 55.3438C369.266 54.3594 368.891 53.5547 368.406 52.9297C367.906 52.3203 367.32 51.875 366.648 51.5938C365.992 51.3125 365.281 51.1719 364.516 51.1719C363.906 51.1719 363.344 51.25 362.828 51.4062C362.312 51.5625 361.852 51.7812 361.445 52.0625C361.117 52.2812 360.812 52.5469 360.531 52.8594C360.266 53.1562 360.023 53.4922 359.805 53.8672C359.664 53.4766 359.492 53.1328 359.289 52.8359C359.102 52.5234 358.875 52.2578 358.609 52.0391C358.266 51.7422 357.859 51.5234 357.391 51.3828C356.922 51.2422 356.391 51.1719 355.797 51.1719C354.578 51.1719 353.539 51.4922 352.68 52.1328C351.836 52.7578 351.172 53.6172 350.688 54.7109L350.5 51.6406ZM386.875 59.5625L381.391 51.6406H374.383L382.867 64.0859L374.055 77H381.109L386.898 68.7031L392.734 77H399.766L390.953 64.0859L399.461 51.6406H392.453L386.875 59.5625ZM405.461 41V46.3203H413.055V71.7031H405.461V77H426.906V71.7031H419.641V41H405.461ZM432.039 64.0859V64.5781C432.039 66.4375 432.305 68.1562 432.836 69.7344C433.367 71.2969 434.148 72.6562 435.18 73.8125C436.195 74.9688 437.445 75.875 438.93 76.5312C440.43 77.1719 442.133 77.4922 444.039 77.4922C445.93 77.4922 447.617 77.1719 449.102 76.5312C450.586 75.875 451.836 74.9688 452.852 73.8125C453.867 72.6562 454.641 71.2969 455.172 69.7344C455.703 68.1562 455.969 66.4375 455.969 64.5781V64.0859C455.969 62.2422 455.703 60.5391 455.172 58.9766C454.641 57.3984 453.867 56.0312 452.852 54.875C451.82 53.7188 450.562 52.8125 449.078 52.1562C447.594 51.5 445.898 51.1719 443.992 51.1719C442.086 51.1719 440.391 51.5 438.906 52.1562C437.438 52.8125 436.195 53.7188 435.18 54.875C434.148 56.0312 433.367 57.3984 432.836 58.9766C432.305 60.5391 432.039 62.2422 432.039 64.0859ZM438.555 64.5781V64.0859C438.555 63.0547 438.656 62.0781 438.859 61.1562C439.062 60.2344 439.383 59.4219 439.82 58.7188C440.258 58.0156 440.82 57.4609 441.508 57.0547C442.195 56.6484 443.023 56.4453 443.992 56.4453C444.977 56.4453 445.812 56.6484 446.5 57.0547C447.188 57.4609 447.75 58.0156 448.188 58.7188C448.609 59.4219 448.922 60.2344 449.125 61.1562C449.328 62.0781 449.43 63.0547 449.43 64.0859V64.5781C449.43 65.6406 449.328 66.6406 449.125 67.5781C448.922 68.5 448.609 69.3047 448.188 69.9922C447.75 70.6953 447.188 71.25 446.5 71.6562C445.812 72.0625 444.992 72.2656 444.039 72.2656C443.055 72.2656 442.211 72.0625 441.508 71.6562C440.82 71.25 440.258 70.6953 439.82 69.9922C439.383 69.3047 439.062 68.5 438.859 67.5781C438.656 66.6406 438.555 65.6406 438.555 64.5781ZM460.867 64.0859V64.5781C460.867 66.4375 461.133 68.1562 461.664 69.7344C462.195 71.2969 462.977 72.6562 464.008 73.8125C465.023 74.9688 466.273 75.875 467.758 76.5312C469.258 77.1719 470.961 77.4922 472.867 77.4922C474.758 77.4922 476.445 77.1719 477.93 76.5312C479.414 75.875 480.664 74.9688 481.68 73.8125C482.695 72.6562 483.469 71.2969 484 69.7344C484.531 68.1562 484.797 66.4375 484.797 64.5781V64.0859C484.797 62.2422 484.531 60.5391 484 58.9766C483.469 57.3984 482.695 56.0312 481.68 54.875C480.648 53.7188 479.391 52.8125 477.906 52.1562C476.422 51.5 474.727 51.1719 472.82 51.1719C470.914 51.1719 469.219 51.5 467.734 52.1562C466.266 52.8125 465.023 53.7188 464.008 54.875C462.977 56.0312 462.195 57.3984 461.664 58.9766C461.133 60.5391 460.867 62.2422 460.867 64.0859ZM467.383 64.5781V64.0859C467.383 63.0547 467.484 62.0781 467.688 61.1562C467.891 60.2344 468.211 59.4219 468.648 58.7188C469.086 58.0156 469.648 57.4609 470.336 57.0547C471.023 56.6484 471.852 56.4453 472.82 56.4453C473.805 56.4453 474.641 56.6484 475.328 57.0547C476.016 57.4609 476.578 58.0156 477.016 58.7188C477.438 59.4219 477.75 60.2344 477.953 61.1562C478.156 62.0781 478.258 63.0547 478.258 64.0859V64.5781C478.258 65.6406 478.156 66.6406 477.953 67.5781C477.75 68.5 477.438 69.3047 477.016 69.9922C476.578 70.6953 476.016 71.25 475.328 71.6562C474.641 72.0625 473.82 72.2656 472.867 72.2656C471.883 72.2656 471.039 72.0625 470.336 71.6562C469.648 71.25 469.086 70.6953 468.648 69.9922C468.211 69.3047 467.891 68.5 467.688 67.5781C467.484 66.6406 467.383 65.6406 467.383 64.5781ZM500.125 66.5234L507.32 77H515.312L504.414 62.2109L513.977 51.6406H506.148L499.141 59.3281L497.172 61.5781V41H490.656V77H497.172V69.2656L500.125 66.5234ZM535.961 77H541.867V51.6406H535.328V69.4297C535.125 69.8359 534.883 70.2031 534.602 70.5312C534.32 70.8594 534 71.1406 533.641 71.375C533.219 71.6406 532.727 71.8438 532.164 71.9844C531.617 72.125 531 72.1953 530.312 72.1953C529.547 72.1953 528.898 72.1016 528.367 71.9141C527.836 71.7266 527.406 71.4141 527.078 70.9766C526.75 70.5547 526.508 69.9922 526.352 69.2891C526.211 68.5859 526.141 67.7188 526.141 66.6875V51.6406H519.625V66.6406C519.625 68.5625 519.836 70.2109 520.258 71.5859C520.695 72.9453 521.305 74.0625 522.086 74.9375C522.867 75.8281 523.805 76.4766 524.898 76.8828C525.992 77.2891 527.195 77.4922 528.508 77.4922C529.945 77.4922 531.266 77.1328 532.469 76.4141C533.688 75.6953 534.727 74.7031 535.586 73.4375L535.961 77ZM548.336 86.75H554.852V74.7969C555.148 75.125 555.461 75.4219 555.789 75.6875C556.117 75.9531 556.461 76.1953 556.82 76.4141C557.43 76.7578 558.086 77.0156 558.789 77.1875C559.508 77.375 560.289 77.4688 561.133 77.4688C562.727 77.4688 564.141 77.1406 565.375 76.4844C566.609 75.8281 567.648 74.9219 568.492 73.7656C569.32 72.625 569.945 71.2656 570.367 69.6875C570.805 68.1094 571.023 66.3984 571.023 64.5547V64.0625C571.023 62.1406 570.805 60.3906 570.367 58.8125C569.945 57.2188 569.312 55.8516 568.469 54.7109C567.625 53.5859 566.586 52.7188 565.352 52.1094C564.117 51.4844 562.695 51.1719 561.086 51.1719C560.305 51.1719 559.57 51.2578 558.883 51.4297C558.211 51.5859 557.594 51.8125 557.031 52.1094C556.562 52.3594 556.125 52.6562 555.719 53C555.312 53.3281 554.938 53.7031 554.594 54.125L554.359 51.6406H548.336V86.75ZM564.508 64.0625V64.5547C564.508 65.6016 564.414 66.5938 564.227 67.5312C564.039 68.4531 563.742 69.2656 563.336 69.9688C562.93 70.6719 562.398 71.2266 561.742 71.6328C561.102 72.0391 560.32 72.2422 559.398 72.2422C558.82 72.2422 558.297 72.1875 557.828 72.0781C557.359 71.9531 556.945 71.7812 556.586 71.5625C556.211 71.3281 555.875 71.0469 555.578 70.7188C555.297 70.3906 555.055 70.0234 554.852 69.6172V59.0234C555.07 58.5859 555.328 58.2031 555.625 57.875C555.938 57.5469 556.297 57.2734 556.703 57.0547C557.062 56.8672 557.461 56.7266 557.898 56.6328C558.336 56.5234 558.82 56.4688 559.352 56.4688C560.273 56.4688 561.055 56.6641 561.695 57.0547C562.352 57.4453 562.891 57.9766 563.312 58.6484C563.719 59.3359 564.016 60.1484 564.203 61.0859C564.406 62.0078 564.508 63 564.508 64.0625Z" fill="black"/>
<path d="M208.809 99.3213L208.782 94.6279H204.634V95.999H207.235L207.218 98.873C207.083 99.0664 206.916 99.2246 206.717 99.3477C206.518 99.4648 206.304 99.5586 206.075 99.6289C205.847 99.6992 205.609 99.7461 205.363 99.7695C205.123 99.793 204.892 99.8018 204.669 99.7959C204.282 99.79 203.937 99.7227 203.632 99.5938C203.327 99.459 203.061 99.2803 202.832 99.0576C202.598 98.835 202.398 98.5771 202.234 98.2842C202.07 97.9912 201.936 97.6807 201.83 97.3525C201.725 97.0244 201.646 96.6904 201.593 96.3506C201.546 96.0049 201.52 95.6709 201.514 95.3486V93.8457C201.514 93.5293 201.534 93.2012 201.575 92.8613C201.616 92.5215 201.684 92.1875 201.777 91.8594C201.871 91.5312 201.991 91.2207 202.138 90.9277C202.284 90.6289 202.469 90.3682 202.691 90.1455C202.914 89.9229 203.175 89.7471 203.474 89.6182C203.772 89.4834 204.115 89.416 204.502 89.416C204.906 89.416 205.261 89.4805 205.565 89.6094C205.87 89.7324 206.134 89.9053 206.356 90.1279C206.573 90.3506 206.749 90.6201 206.884 90.9365C207.019 91.2471 207.118 91.5869 207.183 91.9561H208.791C208.738 91.3584 208.598 90.8193 208.369 90.3389C208.141 89.8525 207.839 89.4365 207.464 89.0908C207.089 88.751 206.649 88.4902 206.146 88.3086C205.642 88.1211 205.091 88.0273 204.493 88.0273C203.954 88.0273 203.468 88.1064 203.034 88.2646C202.601 88.4229 202.214 88.6367 201.874 88.9062C201.528 89.1816 201.232 89.5068 200.986 89.8818C200.74 90.251 200.535 90.6523 200.371 91.0859C200.207 91.5195 200.084 91.9736 200.002 92.4482C199.926 92.917 199.885 93.3887 199.879 93.8633V95.3486C199.885 95.8291 199.932 96.3066 200.02 96.7812C200.113 97.25 200.251 97.6982 200.433 98.126C200.608 98.5596 200.828 98.9609 201.092 99.3301C201.355 99.6992 201.663 100.019 202.015 100.288C202.366 100.563 202.762 100.78 203.201 100.938C203.646 101.091 204.133 101.17 204.66 101.176C205.182 101.182 205.68 101.123 206.154 101C206.629 100.883 207.071 100.701 207.481 100.455C207.722 100.314 207.953 100.15 208.176 99.9629C208.398 99.7695 208.609 99.5557 208.809 99.3213ZM215.541 101.176C216.467 101.176 217.243 100.991 217.87 100.622C218.503 100.247 218.978 99.8193 219.294 99.3389L218.301 98.5654C218.002 98.9521 217.627 99.2627 217.176 99.4971C216.725 99.7314 216.209 99.8486 215.629 99.8486C215.189 99.8486 214.788 99.7666 214.425 99.6025C214.062 99.4385 213.751 99.2129 213.493 98.9258C213.241 98.6562 213.042 98.3457 212.896 97.9941C212.755 97.6426 212.664 97.2354 212.623 96.7725V96.7109H219.417V95.9814C219.417 95.3193 219.332 94.7041 219.162 94.1357C218.998 93.5674 218.746 93.0723 218.406 92.6504C218.066 92.2344 217.639 91.9092 217.123 91.6748C216.613 91.4346 216.016 91.3145 215.33 91.3145C214.785 91.3145 214.252 91.4258 213.73 91.6484C213.215 91.8711 212.755 92.1904 212.351 92.6064C211.94 93.0283 211.612 93.5439 211.366 94.1533C211.12 94.7568 210.997 95.4424 210.997 96.21V96.5791C210.997 97.2412 211.108 97.8535 211.331 98.416C211.554 98.9785 211.864 99.4648 212.263 99.875C212.661 100.285 213.139 100.604 213.695 100.833C214.258 101.062 214.873 101.176 215.541 101.176ZM215.33 92.6504C215.746 92.6504 216.104 92.7266 216.402 92.8789C216.707 93.0312 216.959 93.2305 217.158 93.4766C217.357 93.7227 217.513 94.0156 217.624 94.3555C217.735 94.6895 217.791 95.0029 217.791 95.2959V95.375H212.676C212.74 94.9355 212.852 94.5488 213.01 94.2148C213.174 93.875 213.373 93.5879 213.607 93.3535C213.842 93.125 214.105 92.9521 214.398 92.835C214.691 92.7119 215.002 92.6504 215.33 92.6504ZM226 89.1875H224.365V91.4902H221.869V92.7471H224.365V97.915C224.365 98.501 224.441 99.002 224.594 99.418C224.752 99.8281 224.966 100.162 225.235 100.42C225.505 100.684 225.821 100.877 226.185 101C226.554 101.117 226.949 101.176 227.371 101.176C227.623 101.176 227.875 101.164 228.127 101.141C228.385 101.117 228.628 101.082 228.856 101.035C229.085 100.994 229.296 100.944 229.489 100.886C229.683 100.821 229.847 100.748 229.981 100.666L229.753 99.5146C229.653 99.5381 229.524 99.5674 229.366 99.6025C229.214 99.6318 229.05 99.6611 228.874 99.6904C228.692 99.7197 228.508 99.7461 228.32 99.7695C228.133 99.7871 227.951 99.7959 227.775 99.7959C227.535 99.7959 227.307 99.7666 227.09 99.708C226.879 99.6494 226.691 99.5469 226.527 99.4004C226.363 99.2598 226.234 99.0693 226.141 98.8291C226.047 98.5889 226 98.2842 226 97.915V92.7471H229.621V91.4902H226V89.1875ZM245.556 88.2031H243.543V101H245.125V95.8936L244.993 90.7344L247.164 97.4404H248.096L250.46 90.5498L250.328 95.8936V101H251.91V88.2031H249.889L247.639 94.6016L245.556 88.2031ZM258.546 93.2217L255.821 88.2031H253.914L257.632 94.5488L253.817 101H255.742L258.581 95.8848L261.411 101H263.31L259.504 94.5488L263.222 88.2031H261.306L258.546 93.2217ZM282.435 91.3145C281.743 91.3145 281.125 91.4668 280.58 91.7715C280.041 92.0703 279.578 92.4805 279.191 93.002L279.183 92.7646L279.112 91.4902H277.565V101H279.2V94.9004C279.306 94.6074 279.438 94.3438 279.596 94.1094C279.76 93.8691 279.95 93.667 280.167 93.5029C280.407 93.3154 280.688 93.1748 281.011 93.0811C281.333 92.9814 281.693 92.9316 282.092 92.9316C282.402 92.9316 282.698 92.9492 282.979 92.9844C283.267 93.0137 283.568 93.0635 283.885 93.1338L284.104 91.543C283.94 91.4727 283.694 91.417 283.366 91.376C283.044 91.335 282.733 91.3145 282.435 91.3145ZM291.215 101.176C292.141 101.176 292.917 100.991 293.544 100.622C294.177 100.247 294.651 99.8193 294.968 99.3389L293.975 98.5654C293.676 98.9521 293.301 99.2627 292.85 99.4971C292.398 99.7314 291.883 99.8486 291.303 99.8486C290.863 99.8486 290.462 99.7666 290.099 99.6025C289.735 99.4385 289.425 99.2129 289.167 98.9258C288.915 98.6562 288.716 98.3457 288.569 97.9941C288.429 97.6426 288.338 97.2354 288.297 96.7725V96.7109H295.091V95.9814C295.091 95.3193 295.006 94.7041 294.836 94.1357C294.672 93.5674 294.42 93.0723 294.08 92.6504C293.74 92.2344 293.312 91.9092 292.797 91.6748C292.287 91.4346 291.689 91.3145 291.004 91.3145C290.459 91.3145 289.926 91.4258 289.404 91.6484C288.889 91.8711 288.429 92.1904 288.024 92.6064C287.614 93.0283 287.286 93.5439 287.04 94.1533C286.794 94.7568 286.671 95.4424 286.671 96.21V96.5791C286.671 97.2412 286.782 97.8535 287.005 98.416C287.228 98.9785 287.538 99.4648 287.937 99.875C288.335 100.285 288.812 100.604 289.369 100.833C289.932 101.062 290.547 101.176 291.215 101.176ZM291.004 92.6504C291.42 92.6504 291.777 92.7266 292.076 92.8789C292.381 93.0312 292.633 93.2305 292.832 93.4766C293.031 93.7227 293.187 94.0156 293.298 94.3555C293.409 94.6895 293.465 95.0029 293.465 95.2959V95.375H288.35C288.414 94.9355 288.525 94.5488 288.684 94.2148C288.848 93.875 289.047 93.5879 289.281 93.3535C289.516 93.125 289.779 92.9521 290.072 92.835C290.365 92.7119 290.676 92.6504 291.004 92.6504ZM301.876 99.8574C301.366 99.8574 300.938 99.7578 300.593 99.5586C300.253 99.3535 299.98 99.0869 299.775 98.7588C299.564 98.4365 299.412 98.0732 299.318 97.6689C299.23 97.2588 299.187 96.8457 299.187 96.4297V96.0605C299.187 95.6504 299.23 95.2432 299.318 94.8389C299.412 94.4346 299.564 94.0684 299.775 93.7402C299.986 93.418 300.262 93.1572 300.602 92.958C300.947 92.7529 301.372 92.6504 301.876 92.6504C302.204 92.6504 302.509 92.7061 302.79 92.8174C303.077 92.9287 303.323 93.0811 303.528 93.2744C303.733 93.4678 303.895 93.6934 304.012 93.9512C304.135 94.2031 304.199 94.4727 304.205 94.7598H305.743C305.743 94.2793 305.646 93.8281 305.453 93.4062C305.26 92.9844 304.993 92.6182 304.653 92.3076C304.308 92.0029 303.897 91.7627 303.423 91.5869C302.954 91.4053 302.438 91.3145 301.876 91.3145C301.155 91.3145 300.525 91.4434 299.986 91.7012C299.447 91.959 298.999 92.3047 298.642 92.7383C298.278 93.1777 298.006 93.6846 297.824 94.2588C297.643 94.833 297.552 95.4336 297.552 96.0605V96.4297C297.552 97.0625 297.643 97.666 297.824 98.2402C298.006 98.8086 298.278 99.3096 298.642 99.7432C298.999 100.183 299.447 100.531 299.986 100.789C300.525 101.047 301.155 101.176 301.876 101.176C302.38 101.176 302.863 101.091 303.326 100.921C303.789 100.745 304.199 100.511 304.557 100.218C304.914 99.9307 305.198 99.5967 305.409 99.2158C305.626 98.8291 305.737 98.4248 305.743 98.0029H304.205C304.199 98.2666 304.129 98.5127 303.994 98.7412C303.865 98.9639 303.692 99.1572 303.476 99.3213C303.259 99.4912 303.01 99.623 302.729 99.7168C302.453 99.8105 302.169 99.8574 301.876 99.8574ZM308.178 96.1572V96.3506C308.178 97.0361 308.277 97.6719 308.477 98.2578C308.676 98.8438 308.963 99.3535 309.338 99.7871C309.707 100.221 310.158 100.561 310.691 100.807C311.23 101.053 311.837 101.176 312.511 101.176C313.179 101.176 313.779 101.053 314.312 100.807C314.846 100.561 315.3 100.221 315.675 99.7871C316.044 99.3535 316.328 98.8438 316.527 98.2578C316.727 97.6719 316.826 97.0361 316.826 96.3506V96.1572C316.826 95.4717 316.727 94.8359 316.527 94.25C316.328 93.6582 316.044 93.1455 315.675 92.7119C315.3 92.2783 314.843 91.9385 314.304 91.6924C313.771 91.4404 313.167 91.3145 312.493 91.3145C311.825 91.3145 311.225 91.4404 310.691 91.6924C310.158 91.9385 309.707 92.2783 309.338 92.7119C308.963 93.1455 308.676 93.6582 308.477 94.25C308.277 94.8359 308.178 95.4717 308.178 96.1572ZM309.804 96.3506V96.1572C309.804 95.6943 309.859 95.252 309.971 94.8301C310.082 94.4023 310.252 94.0273 310.48 93.7051C310.703 93.3828 310.981 93.1279 311.315 92.9404C311.649 92.7471 312.042 92.6504 312.493 92.6504C312.944 92.6504 313.337 92.7471 313.671 92.9404C314.011 93.1279 314.295 93.3828 314.523 93.7051C314.746 94.0273 314.913 94.4023 315.024 94.8301C315.142 95.252 315.2 95.6943 315.2 96.1572V96.3506C315.2 96.8193 315.145 97.2676 315.033 97.6953C314.922 98.1172 314.755 98.4893 314.532 98.8115C314.304 99.1338 314.02 99.3887 313.68 99.5762C313.346 99.7637 312.956 99.8574 312.511 99.8574C312.06 99.8574 311.664 99.7637 311.324 99.5762C310.984 99.3887 310.703 99.1338 310.48 98.8115C310.252 98.4893 310.082 98.1172 309.971 97.6953C309.859 97.2676 309.804 96.8193 309.804 96.3506ZM325.677 91.3145C324.985 91.3145 324.367 91.4668 323.822 91.7715C323.283 92.0703 322.82 92.4805 322.434 93.002L322.425 92.7646L322.354 91.4902H320.808V101H322.442V94.9004C322.548 94.6074 322.68 94.3438 322.838 94.1094C323.002 93.8691 323.192 93.667 323.409 93.5029C323.649 93.3154 323.931 93.1748 324.253 93.0811C324.575 92.9814 324.936 92.9316 325.334 92.9316C325.645 92.9316 325.94 92.9492 326.222 92.9844C326.509 93.0137 326.811 93.0635 327.127 93.1338L327.347 91.543C327.183 91.4727 326.937 91.417 326.608 91.376C326.286 91.335 325.976 91.3145 325.677 91.3145ZM329.948 96.166V96.3506C329.948 97.0303 330.039 97.666 330.221 98.2578C330.402 98.8438 330.657 99.3535 330.985 99.7871C331.313 100.221 331.709 100.561 332.172 100.807C332.641 101.053 333.162 101.176 333.736 101.176C334.322 101.176 334.835 101.076 335.274 100.877C335.714 100.678 336.092 100.385 336.408 99.998L336.479 101H337.973V87.5H336.347V92.4307C336.036 92.0674 335.667 91.792 335.239 91.6045C334.817 91.4111 334.322 91.3145 333.754 91.3145C333.174 91.3145 332.649 91.4346 332.181 91.6748C331.712 91.915 331.313 92.249 330.985 92.6768C330.651 93.1045 330.394 93.6172 330.212 94.2148C330.036 94.8066 329.948 95.457 329.948 96.166ZM331.574 96.3506V96.166C331.574 95.7031 331.624 95.2637 331.724 94.8477C331.823 94.4258 331.979 94.0537 332.189 93.7314C332.395 93.415 332.658 93.1631 332.98 92.9756C333.309 92.7881 333.701 92.6943 334.158 92.6943C334.691 92.6943 335.137 92.8203 335.494 93.0723C335.852 93.3184 336.136 93.6348 336.347 94.0215V98.4336C336.136 98.8496 335.852 99.1807 335.494 99.4268C335.137 99.6729 334.686 99.7959 334.141 99.7959C333.689 99.7959 333.303 99.7051 332.98 99.5234C332.658 99.3359 332.395 99.084 332.189 98.7676C331.979 98.4512 331.823 98.085 331.724 97.6689C331.624 97.2529 331.574 96.8135 331.574 96.3506ZM347.386 98.4775C347.386 98.6299 347.356 98.7734 347.298 98.9082C347.239 99.043 347.154 99.166 347.043 99.2773C346.861 99.459 346.609 99.6025 346.287 99.708C345.965 99.8076 345.587 99.8574 345.153 99.8574C344.878 99.8574 344.6 99.8281 344.318 99.7695C344.037 99.7109 343.782 99.6113 343.554 99.4707C343.319 99.3301 343.123 99.1455 342.965 98.917C342.812 98.6885 342.725 98.4072 342.701 98.0732H341.075C341.075 98.4775 341.166 98.8672 341.348 99.2422C341.535 99.6172 341.805 99.9453 342.156 100.227C342.502 100.514 342.927 100.745 343.431 100.921C343.935 101.091 344.509 101.176 345.153 101.176C345.716 101.176 346.234 101.108 346.709 100.974C347.184 100.839 347.591 100.648 347.931 100.402C348.271 100.156 348.534 99.8604 348.722 99.5146C348.915 99.1689 349.012 98.7852 349.012 98.3633C349.012 97.9707 348.927 97.625 348.757 97.3262C348.593 97.0273 348.353 96.7637 348.036 96.5352C347.72 96.3125 347.33 96.1221 346.867 95.9639C346.404 95.7998 345.88 95.6562 345.294 95.5332C344.849 95.4453 344.479 95.3545 344.187 95.2607C343.899 95.167 343.671 95.0615 343.501 94.9443C343.325 94.8271 343.202 94.6953 343.132 94.5488C343.062 94.4023 343.026 94.2354 343.026 94.0479C343.026 93.8662 343.07 93.6904 343.158 93.5205C343.246 93.3506 343.378 93.2012 343.554 93.0723C343.724 92.9434 343.938 92.8408 344.195 92.7646C344.459 92.6885 344.764 92.6504 345.109 92.6504C345.443 92.6504 345.742 92.6973 346.006 92.791C346.275 92.8848 346.504 93.0078 346.691 93.1602C346.879 93.3125 347.025 93.4883 347.131 93.6875C347.236 93.8809 347.289 94.0801 347.289 94.2852H348.915C348.915 93.8691 348.824 93.4824 348.643 93.125C348.467 92.7617 348.215 92.4453 347.887 92.1758C347.559 91.9062 347.16 91.6953 346.691 91.543C346.223 91.3906 345.695 91.3145 345.109 91.3145C344.564 91.3145 344.063 91.3877 343.606 91.5342C343.155 91.6807 342.766 91.8799 342.438 92.1318C342.109 92.3838 341.854 92.6797 341.673 93.0195C341.491 93.3535 341.4 93.7139 341.4 94.1006C341.4 94.4932 341.488 94.8389 341.664 95.1377C341.84 95.4307 342.089 95.6855 342.411 95.9023C342.728 96.125 343.108 96.3154 343.554 96.4736C344.005 96.6318 344.503 96.7666 345.048 96.8779C345.493 96.9658 345.865 97.0654 346.164 97.1768C346.463 97.2822 346.703 97.3994 346.885 97.5283C347.066 97.6572 347.195 97.8008 347.271 97.959C347.348 98.1113 347.386 98.2842 347.386 98.4775ZM362.23 96.1572V96.3506C362.23 97.0361 362.33 97.6719 362.529 98.2578C362.729 98.8438 363.016 99.3535 363.391 99.7871C363.76 100.221 364.211 100.561 364.744 100.807C365.283 101.053 365.89 101.176 366.563 101.176C367.231 101.176 367.832 101.053 368.365 100.807C368.898 100.561 369.353 100.221 369.728 99.7871C370.097 99.3535 370.381 98.8438 370.58 98.2578C370.779 97.6719 370.879 97.0361 370.879 96.3506V96.1572C370.879 95.4717 370.779 94.8359 370.58 94.25C370.381 93.6582 370.097 93.1455 369.728 92.7119C369.353 92.2783 368.896 91.9385 368.356 91.6924C367.823 91.4404 367.22 91.3145 366.546 91.3145C365.878 91.3145 365.277 91.4404 364.744 91.6924C364.211 91.9385 363.76 92.2783 363.391 92.7119C363.016 93.1455 362.729 93.6582 362.529 94.25C362.33 94.8359 362.23 95.4717 362.23 96.1572ZM363.856 96.3506V96.1572C363.856 95.6943 363.912 95.252 364.023 94.8301C364.135 94.4023 364.305 94.0273 364.533 93.7051C364.756 93.3828 365.034 93.1279 365.368 92.9404C365.702 92.7471 366.095 92.6504 366.546 92.6504C366.997 92.6504 367.39 92.7471 367.724 92.9404C368.063 93.1279 368.348 93.3828 368.576 93.7051C368.799 94.0273 368.966 94.4023 369.077 94.8301C369.194 95.252 369.253 95.6943 369.253 96.1572V96.3506C369.253 96.8193 369.197 97.2676 369.086 97.6953C368.975 98.1172 368.808 98.4893 368.585 98.8115C368.356 99.1338 368.072 99.3887 367.732 99.5762C367.398 99.7637 367.009 99.8574 366.563 99.8574C366.112 99.8574 365.717 99.7637 365.377 99.5762C365.037 99.3887 364.756 99.1338 364.533 98.8115C364.305 98.4893 364.135 98.1172 364.023 97.6953C363.912 97.2676 363.856 96.8193 363.856 96.3506ZM373.498 101H375.124V94.1797C375.235 93.9746 375.364 93.7871 375.511 93.6172C375.663 93.4473 375.827 93.2979 376.003 93.1689C376.22 93.0225 376.457 92.9082 376.715 92.8262C376.973 92.7383 377.251 92.6943 377.55 92.6943C377.896 92.6943 378.2 92.7354 378.464 92.8174C378.733 92.8994 378.962 93.0312 379.149 93.2129C379.331 93.3945 379.469 93.6318 379.562 93.9248C379.656 94.2178 379.703 94.5752 379.703 94.9971V101H381.329V94.9619C381.329 94.3291 381.25 93.7842 381.092 93.3271C380.939 92.8643 380.72 92.4834 380.433 92.1846C380.146 91.8857 379.797 91.666 379.387 91.5254C378.982 91.3848 378.531 91.3145 378.033 91.3145C377.664 91.3203 377.312 91.376 376.979 91.4814C376.65 91.5811 376.346 91.7246 376.064 91.9121C375.877 92.0352 375.698 92.1816 375.528 92.3516C375.364 92.5156 375.212 92.6973 375.071 92.8965L374.957 91.4902H373.498V101ZM395.374 87.5V88.915H398.608V99.5938H395.374V101H403.337V99.5938H400.234V87.5H395.374ZM405.473 96.1572V96.3506C405.473 97.0361 405.572 97.6719 405.771 98.2578C405.971 98.8438 406.258 99.3535 406.633 99.7871C407.002 100.221 407.453 100.561 407.986 100.807C408.525 101.053 409.132 101.176 409.806 101.176C410.474 101.176 411.074 101.053 411.607 100.807C412.141 100.561 412.595 100.221 412.97 99.7871C413.339 99.3535 413.623 98.8438 413.822 98.2578C414.021 97.6719 414.121 97.0361 414.121 96.3506V96.1572C414.121 95.4717 414.021 94.8359 413.822 94.25C413.623 93.6582 413.339 93.1455 412.97 92.7119C412.595 92.2783 412.138 91.9385 411.599 91.6924C411.065 91.4404 410.462 91.3145 409.788 91.3145C409.12 91.3145 408.52 91.4404 407.986 91.6924C407.453 91.9385 407.002 92.2783 406.633 92.7119C406.258 93.1455 405.971 93.6582 405.771 94.25C405.572 94.8359 405.473 95.4717 405.473 96.1572ZM407.099 96.3506V96.1572C407.099 95.6943 407.154 95.252 407.266 94.8301C407.377 94.4023 407.547 94.0273 407.775 93.7051C407.998 93.3828 408.276 93.1279 408.61 92.9404C408.944 92.7471 409.337 92.6504 409.788 92.6504C410.239 92.6504 410.632 92.7471 410.966 92.9404C411.306 93.1279 411.59 93.3828 411.818 93.7051C412.041 94.0273 412.208 94.4023 412.319 94.8301C412.437 95.252 412.495 95.6943 412.495 96.1572V96.3506C412.495 96.8193 412.439 97.2676 412.328 97.6953C412.217 98.1172 412.05 98.4893 411.827 98.8115C411.599 99.1338 411.314 99.3887 410.975 99.5762C410.641 99.7637 410.251 99.8574 409.806 99.8574C409.354 99.8574 408.959 99.7637 408.619 99.5762C408.279 99.3887 407.998 99.1338 407.775 98.8115C407.547 98.4893 407.377 98.1172 407.266 97.6953C407.154 97.2676 407.099 96.8193 407.099 96.3506ZM420.59 89.1875H418.955V91.4902H416.459V92.7471H418.955V97.915C418.955 98.501 419.031 99.002 419.184 99.418C419.342 99.8281 419.556 100.162 419.825 100.42C420.095 100.684 420.411 100.877 420.774 101C421.144 101.117 421.539 101.176 421.961 101.176C422.213 101.176 422.465 101.164 422.717 101.141C422.975 101.117 423.218 101.082 423.446 101.035C423.675 100.994 423.886 100.944 424.079 100.886C424.272 100.821 424.437 100.748 424.571 100.666L424.343 99.5146C424.243 99.5381 424.114 99.5674 423.956 99.6025C423.804 99.6318 423.64 99.6611 423.464 99.6904C423.282 99.7197 423.098 99.7461 422.91 99.7695C422.723 99.7871 422.541 99.7959 422.365 99.7959C422.125 99.7959 421.896 99.7666 421.68 99.708C421.469 99.6494 421.281 99.5469 421.117 99.4004C420.953 99.2598 420.824 99.0693 420.73 98.8291C420.637 98.5889 420.59 98.2842 420.59 97.915V92.7471H424.211V91.4902H420.59V89.1875ZM433.87 98.4775C433.87 98.6299 433.841 98.7734 433.782 98.9082C433.724 99.043 433.639 99.166 433.527 99.2773C433.346 99.459 433.094 99.6025 432.771 99.708C432.449 99.8076 432.071 99.8574 431.638 99.8574C431.362 99.8574 431.084 99.8281 430.803 99.7695C430.521 99.7109 430.267 99.6113 430.038 99.4707C429.804 99.3301 429.607 99.1455 429.449 98.917C429.297 98.6885 429.209 98.4072 429.186 98.0732H427.56C427.56 98.4775 427.65 98.8672 427.832 99.2422C428.02 99.6172 428.289 99.9453 428.641 100.227C428.986 100.514 429.411 100.745 429.915 100.921C430.419 101.091 430.993 101.176 431.638 101.176C432.2 101.176 432.719 101.108 433.193 100.974C433.668 100.839 434.075 100.648 434.415 100.402C434.755 100.156 435.019 99.8604 435.206 99.5146C435.399 99.1689 435.496 98.7852 435.496 98.3633C435.496 97.9707 435.411 97.625 435.241 97.3262C435.077 97.0273 434.837 96.7637 434.521 96.5352C434.204 96.3125 433.814 96.1221 433.352 95.9639C432.889 95.7998 432.364 95.6562 431.778 95.5332C431.333 95.4453 430.964 95.3545 430.671 95.2607C430.384 95.167 430.155 95.0615 429.985 94.9443C429.81 94.8271 429.687 94.6953 429.616 94.5488C429.546 94.4023 429.511 94.2354 429.511 94.0479C429.511 93.8662 429.555 93.6904 429.643 93.5205C429.73 93.3506 429.862 93.2012 430.038 93.0723C430.208 92.9434 430.422 92.8408 430.68 92.7646C430.943 92.6885 431.248 92.6504 431.594 92.6504C431.928 92.6504 432.227 92.6973 432.49 92.791C432.76 92.8848 432.988 93.0078 433.176 93.1602C433.363 93.3125 433.51 93.4883 433.615 93.6875C433.721 93.8809 433.773 94.0801 433.773 94.2852H435.399C435.399 93.8691 435.309 93.4824 435.127 93.125C434.951 92.7617 434.699 92.4453 434.371 92.1758C434.043 91.9062 433.645 91.6953 433.176 91.543C432.707 91.3906 432.18 91.3145 431.594 91.3145C431.049 91.3145 430.548 91.3877 430.091 91.5342C429.64 91.6807 429.25 91.8799 428.922 92.1318C428.594 92.3838 428.339 92.6797 428.157 93.0195C427.976 93.3535 427.885 93.7139 427.885 94.1006C427.885 94.4932 427.973 94.8389 428.148 95.1377C428.324 95.4307 428.573 95.6855 428.896 95.9023C429.212 96.125 429.593 96.3154 430.038 96.4736C430.489 96.6318 430.987 96.7666 431.532 96.8779C431.978 96.9658 432.35 97.0654 432.648 97.1768C432.947 97.2822 433.188 97.3994 433.369 97.5283C433.551 97.6572 433.68 97.8008 433.756 97.959C433.832 98.1113 433.87 98.2842 433.87 98.4775ZM448.715 96.1572V96.3506C448.715 97.0361 448.814 97.6719 449.014 98.2578C449.213 98.8438 449.5 99.3535 449.875 99.7871C450.244 100.221 450.695 100.561 451.229 100.807C451.768 101.053 452.374 101.176 453.048 101.176C453.716 101.176 454.316 101.053 454.85 100.807C455.383 100.561 455.837 100.221 456.212 99.7871C456.581 99.3535 456.865 98.8438 457.064 98.2578C457.264 97.6719 457.363 97.0361 457.363 96.3506V96.1572C457.363 95.4717 457.264 94.8359 457.064 94.25C456.865 93.6582 456.581 93.1455 456.212 92.7119C455.837 92.2783 455.38 91.9385 454.841 91.6924C454.308 91.4404 453.704 91.3145 453.03 91.3145C452.362 91.3145 451.762 91.4404 451.229 91.6924C450.695 91.9385 450.244 92.2783 449.875 92.7119C449.5 93.1455 449.213 93.6582 449.014 94.25C448.814 94.8359 448.715 95.4717 448.715 96.1572ZM450.341 96.3506V96.1572C450.341 95.6943 450.396 95.252 450.508 94.8301C450.619 94.4023 450.789 94.0273 451.018 93.7051C451.24 93.3828 451.519 93.1279 451.853 92.9404C452.187 92.7471 452.579 92.6504 453.03 92.6504C453.481 92.6504 453.874 92.7471 454.208 92.9404C454.548 93.1279 454.832 93.3828 455.061 93.7051C455.283 94.0273 455.45 94.4023 455.562 94.8301C455.679 95.252 455.737 95.6943 455.737 96.1572V96.3506C455.737 96.8193 455.682 97.2676 455.57 97.6953C455.459 98.1172 455.292 98.4893 455.069 98.8115C454.841 99.1338 454.557 99.3887 454.217 99.5762C453.883 99.7637 453.493 99.8574 453.048 99.8574C452.597 99.8574 452.201 99.7637 451.861 99.5762C451.521 99.3887 451.24 99.1338 451.018 98.8115C450.789 98.4893 450.619 98.1172 450.508 97.6953C450.396 97.2676 450.341 96.8193 450.341 96.3506ZM462.408 101H464.043V92.7471H467.708V91.4902H464.043V90.8223C464.043 90.4238 464.093 90.0752 464.192 89.7764C464.298 89.4775 464.45 89.2344 464.649 89.0469C464.837 88.8652 465.071 88.7305 465.353 88.6426C465.64 88.5488 465.968 88.502 466.337 88.502C466.7 88.502 467.04 88.5342 467.356 88.5986C467.679 88.6572 467.96 88.7275 468.2 88.8096L468.394 87.4648C468.241 87.4238 468.092 87.3887 467.945 87.3594C467.799 87.3242 467.652 87.292 467.506 87.2627C467.283 87.2217 467.058 87.1895 466.829 87.166C466.601 87.1367 466.369 87.1221 466.135 87.1221C465.572 87.1221 465.062 87.2012 464.605 87.3594C464.148 87.5176 463.759 87.752 463.437 88.0625C463.108 88.373 462.854 88.7598 462.672 89.2227C462.496 89.6797 462.408 90.2129 462.408 90.8223V91.4902H459.789V92.7471H462.408V101ZM481.296 96.166V96.3506C481.296 97.0303 481.387 97.666 481.568 98.2578C481.75 98.8438 482.005 99.3535 482.333 99.7871C482.661 100.221 483.057 100.561 483.52 100.807C483.988 101.053 484.51 101.176 485.084 101.176C485.67 101.176 486.183 101.076 486.622 100.877C487.062 100.678 487.439 100.385 487.756 99.998L487.826 101H489.32V87.5H487.694V92.4307C487.384 92.0674 487.015 91.792 486.587 91.6045C486.165 91.4111 485.67 91.3145 485.102 91.3145C484.521 91.3145 483.997 91.4346 483.528 91.6748C483.06 91.915 482.661 92.249 482.333 92.6768C481.999 93.1045 481.741 93.6172 481.56 94.2148C481.384 94.8066 481.296 95.457 481.296 96.166ZM482.922 96.3506V96.166C482.922 95.7031 482.972 95.2637 483.071 94.8477C483.171 94.4258 483.326 94.0537 483.537 93.7314C483.742 93.415 484.006 93.1631 484.328 92.9756C484.656 92.7881 485.049 92.6943 485.506 92.6943C486.039 92.6943 486.484 92.8203 486.842 93.0723C487.199 93.3184 487.483 93.6348 487.694 94.0215V98.4336C487.483 98.8496 487.199 99.1807 486.842 99.4268C486.484 99.6729 486.033 99.7959 485.488 99.7959C485.037 99.7959 484.65 99.7051 484.328 99.5234C484.006 99.3359 483.742 99.084 483.537 98.7676C483.326 98.4512 483.171 98.085 483.071 97.6689C482.972 97.2529 482.922 96.8135 482.922 96.3506ZM491.957 96.1572V96.3506C491.957 97.0361 492.057 97.6719 492.256 98.2578C492.455 98.8438 492.742 99.3535 493.117 99.7871C493.486 100.221 493.938 100.561 494.471 100.807C495.01 101.053 495.616 101.176 496.29 101.176C496.958 101.176 497.559 101.053 498.092 100.807C498.625 100.561 499.079 100.221 499.454 99.7871C499.823 99.3535 500.107 98.8438 500.307 98.2578C500.506 97.6719 500.605 97.0361 500.605 96.3506V96.1572C500.605 95.4717 500.506 94.8359 500.307 94.25C500.107 93.6582 499.823 93.1455 499.454 92.7119C499.079 92.2783 498.622 91.9385 498.083 91.6924C497.55 91.4404 496.946 91.3145 496.272 91.3145C495.604 91.3145 495.004 91.4404 494.471 91.6924C493.938 91.9385 493.486 92.2783 493.117 92.7119C492.742 93.1455 492.455 93.6582 492.256 94.25C492.057 94.8359 491.957 95.4717 491.957 96.1572ZM493.583 96.3506V96.1572C493.583 95.6943 493.639 95.252 493.75 94.8301C493.861 94.4023 494.031 94.0273 494.26 93.7051C494.482 93.3828 494.761 93.1279 495.095 92.9404C495.429 92.7471 495.821 92.6504 496.272 92.6504C496.724 92.6504 497.116 92.7471 497.45 92.9404C497.79 93.1279 498.074 93.3828 498.303 93.7051C498.525 94.0273 498.692 94.4023 498.804 94.8301C498.921 95.252 498.979 95.6943 498.979 96.1572V96.3506C498.979 96.8193 498.924 97.2676 498.812 97.6953C498.701 98.1172 498.534 98.4893 498.312 98.8115C498.083 99.1338 497.799 99.3887 497.459 99.5762C497.125 99.7637 496.735 99.8574 496.29 99.8574C495.839 99.8574 495.443 99.7637 495.104 99.5762C494.764 99.3887 494.482 99.1338 494.26 98.8115C494.031 98.4893 493.861 98.1172 493.75 97.6953C493.639 97.2676 493.583 96.8193 493.583 96.3506ZM503.972 91.4902H502.513V101H504.06V93.4326C504.095 93.3389 504.139 93.251 504.191 93.1689C504.25 93.0869 504.317 93.0137 504.394 92.9492C504.493 92.8672 504.613 92.8057 504.754 92.7646C504.9 92.7178 505.07 92.6943 505.264 92.6943C505.439 92.6943 505.592 92.7178 505.721 92.7646C505.855 92.8057 505.967 92.873 506.055 92.9668C506.148 93.0664 506.216 93.1924 506.257 93.3447C506.304 93.4971 506.327 93.6729 506.327 93.8721V101H507.874V93.8809C507.874 93.8457 507.874 93.8164 507.874 93.793C507.874 93.7637 507.874 93.7344 507.874 93.7051C507.892 93.5586 507.927 93.4268 507.979 93.3096C508.032 93.1865 508.105 93.0781 508.199 92.9844C508.293 92.8965 508.41 92.8262 508.551 92.7734C508.691 92.7207 508.858 92.6943 509.052 92.6943C509.233 92.6943 509.392 92.7178 509.526 92.7646C509.667 92.8115 509.784 92.8818 509.878 92.9756C509.966 93.0752 510.033 93.2012 510.08 93.3535C510.127 93.5059 510.15 93.6816 510.15 93.8809V101H511.697V93.8984C511.697 93.4414 511.645 93.0459 511.539 92.7119C511.434 92.3721 511.281 92.0967 511.082 91.8857C510.9 91.6982 510.678 91.5576 510.414 91.4639C510.15 91.3643 509.854 91.3145 509.526 91.3145C509.286 91.3203 509.063 91.3525 508.858 91.4111C508.659 91.4697 508.478 91.5488 508.313 91.6484C508.185 91.7363 508.064 91.8389 507.953 91.9561C507.842 92.0732 507.745 92.1992 507.663 92.334C507.599 92.1875 507.52 92.0557 507.426 91.9385C507.338 91.8213 507.238 91.7217 507.127 91.6396C506.975 91.5342 506.796 91.4551 506.591 91.4023C506.392 91.3438 506.166 91.3145 505.914 91.3145C505.469 91.3203 505.088 91.417 504.771 91.6045C504.461 91.792 504.209 92.0527 504.016 92.3867L503.972 91.4902ZM520.284 101H521.98V100.859C521.875 100.596 521.793 100.288 521.734 99.9365C521.676 99.5791 521.646 99.2422 521.646 98.9258V94.5049C521.646 93.9717 521.55 93.5059 521.356 93.1074C521.163 92.709 520.899 92.375 520.565 92.1055C520.226 91.8418 519.824 91.6455 519.361 91.5166C518.898 91.3818 518.397 91.3145 517.858 91.3145C517.267 91.3145 516.736 91.3965 516.268 91.5605C515.805 91.7246 515.412 91.9385 515.09 92.2021C514.762 92.4717 514.51 92.7734 514.334 93.1074C514.164 93.4414 514.076 93.7812 514.07 94.127H515.705C515.705 93.9277 515.752 93.7373 515.846 93.5557C515.945 93.3682 516.083 93.207 516.259 93.0723C516.435 92.9375 516.648 92.8291 516.9 92.7471C517.158 92.665 517.448 92.624 517.771 92.624C518.116 92.624 518.427 92.668 518.702 92.7559C518.983 92.8438 519.221 92.9668 519.414 93.125C519.607 93.2891 519.757 93.4854 519.862 93.7139C519.968 93.9424 520.021 94.2002 520.021 94.4873V95.2344H518.245C517.583 95.2344 516.982 95.2988 516.443 95.4277C515.91 95.5566 515.453 95.75 515.072 96.0078C514.691 96.2715 514.396 96.5996 514.185 96.9922C513.979 97.3848 513.877 97.8418 513.877 98.3633C513.877 98.7617 513.953 99.1338 514.105 99.4795C514.264 99.8193 514.486 100.112 514.773 100.358C515.055 100.61 515.397 100.81 515.802 100.956C516.212 101.103 516.669 101.176 517.173 101.176C517.483 101.176 517.776 101.144 518.052 101.079C518.327 101.015 518.588 100.927 518.834 100.815C519.074 100.704 519.294 100.575 519.493 100.429C519.698 100.282 519.883 100.127 520.047 99.9629C520.064 100.162 520.091 100.355 520.126 100.543C520.167 100.725 520.22 100.877 520.284 101ZM517.41 99.7607C517.094 99.7607 516.815 99.7197 516.575 99.6377C516.335 99.5557 516.136 99.4414 515.978 99.2949C515.819 99.1543 515.699 98.9844 515.617 98.7852C515.541 98.5859 515.503 98.3691 515.503 98.1348C515.503 97.8887 515.547 97.6689 515.635 97.4756C515.729 97.2822 515.863 97.1152 516.039 96.9746C516.285 96.7754 516.616 96.6289 517.032 96.5352C517.454 96.4355 517.946 96.3857 518.509 96.3857H520.021V98.3105C519.927 98.498 519.798 98.6797 519.634 98.8555C519.47 99.0254 519.276 99.1777 519.054 99.3125C518.825 99.4473 518.573 99.5557 518.298 99.6377C518.022 99.7197 517.727 99.7607 517.41 99.7607ZM525.101 91.4902V92.9053H528.335V99.5938H525.101V101H533.063V99.5938H529.961V91.4902H525.101ZM528.124 88.9941C528.124 89.2578 528.203 89.4775 528.361 89.6533C528.525 89.8291 528.771 89.917 529.1 89.917C529.422 89.917 529.665 89.8291 529.829 89.6533C529.993 89.4775 530.075 89.2578 530.075 88.9941C530.075 88.8477 530.052 88.7129 530.005 88.5898C529.958 88.4668 529.888 88.3643 529.794 88.2822C529.718 88.2061 529.621 88.1475 529.504 88.1064C529.387 88.0596 529.252 88.0361 529.1 88.0361C528.947 88.0361 528.81 88.0596 528.687 88.1064C528.569 88.1475 528.473 88.2061 528.396 88.2822C528.303 88.3701 528.232 88.4756 528.186 88.5986C528.145 88.7217 528.124 88.8535 528.124 88.9941ZM535.656 101H537.282V94.1797C537.394 93.9746 537.522 93.7871 537.669 93.6172C537.821 93.4473 537.985 93.2979 538.161 93.1689C538.378 93.0225 538.615 92.9082 538.873 92.8262C539.131 92.7383 539.409 92.6943 539.708 92.6943C540.054 92.6943 540.358 92.7354 540.622 92.8174C540.892 92.8994 541.12 93.0312 541.308 93.2129C541.489 93.3945 541.627 93.6318 541.721 93.9248C541.814 94.2178 541.861 94.5752 541.861 94.9971V101H543.487V94.9619C543.487 94.3291 543.408 93.7842 543.25 93.3271C543.098 92.8643 542.878 92.4834 542.591 92.1846C542.304 91.8857 541.955 91.666 541.545 91.5254C541.141 91.3848 540.689 91.3145 540.191 91.3145C539.822 91.3203 539.471 91.376 539.137 91.4814C538.809 91.5811 538.504 91.7246 538.223 91.9121C538.035 92.0352 537.856 92.1816 537.687 92.3516C537.522 92.5156 537.37 92.6973 537.229 92.8965L537.115 91.4902H535.656V101ZM552.786 98.4775C552.786 98.6299 552.757 98.7734 552.698 98.9082C552.64 99.043 552.555 99.166 552.443 99.2773C552.262 99.459 552.01 99.6025 551.688 99.708C551.365 99.8076 550.987 99.8574 550.554 99.8574C550.278 99.8574 550 99.8281 549.719 99.7695C549.438 99.7109 549.183 99.6113 548.954 99.4707C548.72 99.3301 548.523 99.1455 548.365 98.917C548.213 98.6885 548.125 98.4072 548.102 98.0732H546.476C546.476 98.4775 546.566 98.8672 546.748 99.2422C546.936 99.6172 547.205 99.9453 547.557 100.227C547.902 100.514 548.327 100.745 548.831 100.921C549.335 101.091 549.909 101.176 550.554 101.176C551.116 101.176 551.635 101.108 552.109 100.974C552.584 100.839 552.991 100.648 553.331 100.402C553.671 100.156 553.935 99.8604 554.122 99.5146C554.315 99.1689 554.412 98.7852 554.412 98.3633C554.412 97.9707 554.327 97.625 554.157 97.3262C553.993 97.0273 553.753 96.7637 553.437 96.5352C553.12 96.3125 552.73 96.1221 552.268 95.9639C551.805 95.7998 551.28 95.6562 550.694 95.5332C550.249 95.4453 549.88 95.3545 549.587 95.2607C549.3 95.167 549.071 95.0615 548.901 94.9443C548.726 94.8271 548.603 94.6953 548.532 94.5488C548.462 94.4023 548.427 94.2354 548.427 94.0479C548.427 93.8662 548.471 93.6904 548.559 93.5205C548.646 93.3506 548.778 93.2012 548.954 93.0723C549.124 92.9434 549.338 92.8408 549.596 92.7646C549.859 92.6885 550.164 92.6504 550.51 92.6504C550.844 92.6504 551.143 92.6973 551.406 92.791C551.676 92.8848 551.904 93.0078 552.092 93.1602C552.279 93.3125 552.426 93.4883 552.531 93.6875C552.637 93.8809 552.689 94.0801 552.689 94.2852H554.315C554.315 93.8691 554.225 93.4824 554.043 93.125C553.867 92.7617 553.615 92.4453 553.287 92.1758C552.959 91.9062 552.561 91.6953 552.092 91.543C551.623 91.3906 551.096 91.3145 550.51 91.3145C549.965 91.3145 549.464 91.3877 549.007 91.5342C548.556 91.6807 548.166 91.8799 547.838 92.1318C547.51 92.3838 547.255 92.6797 547.073 93.0195C546.892 93.3535 546.801 93.7139 546.801 94.1006C546.801 94.4932 546.889 94.8389 547.064 95.1377C547.24 95.4307 547.489 95.6855 547.812 95.9023C548.128 96.125 548.509 96.3154 548.954 96.4736C549.405 96.6318 549.903 96.7666 550.448 96.8779C550.894 96.9658 551.266 97.0654 551.564 97.1768C551.863 97.2822 552.104 97.3994 552.285 97.5283C552.467 97.6572 552.596 97.8008 552.672 97.959C552.748 98.1113 552.786 98.2842 552.786 98.4775ZM561.399 100.622V99.0752H559.633V100.648C559.633 101.146 559.574 101.627 559.457 102.09C559.34 102.553 559.141 102.989 558.859 103.399L559.87 103.953C560.339 103.537 560.711 103.024 560.986 102.415C561.262 101.806 561.399 101.208 561.399 100.622ZM204.73 125.176C205.656 125.176 206.433 124.991 207.06 124.622C207.692 124.247 208.167 123.819 208.483 123.339L207.49 122.565C207.191 122.952 206.816 123.263 206.365 123.497C205.914 123.731 205.398 123.849 204.818 123.849C204.379 123.849 203.978 123.767 203.614 123.603C203.251 123.438 202.94 123.213 202.683 122.926C202.431 122.656 202.231 122.346 202.085 121.994C201.944 121.643 201.854 121.235 201.812 120.772V120.711H208.606V119.981C208.606 119.319 208.521 118.704 208.352 118.136C208.188 117.567 207.936 117.072 207.596 116.65C207.256 116.234 206.828 115.909 206.312 115.675C205.803 115.435 205.205 115.314 204.52 115.314C203.975 115.314 203.441 115.426 202.92 115.648C202.404 115.871 201.944 116.19 201.54 116.606C201.13 117.028 200.802 117.544 200.556 118.153C200.31 118.757 200.187 119.442 200.187 120.21V120.579C200.187 121.241 200.298 121.854 200.521 122.416C200.743 122.979 201.054 123.465 201.452 123.875C201.851 124.285 202.328 124.604 202.885 124.833C203.447 125.062 204.062 125.176 204.73 125.176ZM204.52 116.65C204.936 116.65 205.293 116.727 205.592 116.879C205.896 117.031 206.148 117.23 206.348 117.477C206.547 117.723 206.702 118.016 206.813 118.355C206.925 118.689 206.98 119.003 206.98 119.296V119.375H201.865C201.93 118.936 202.041 118.549 202.199 118.215C202.363 117.875 202.562 117.588 202.797 117.354C203.031 117.125 203.295 116.952 203.588 116.835C203.881 116.712 204.191 116.65 204.52 116.65ZM217.589 125H219.285V124.859C219.18 124.596 219.098 124.288 219.039 123.937C218.98 123.579 218.951 123.242 218.951 122.926V118.505C218.951 117.972 218.854 117.506 218.661 117.107C218.468 116.709 218.204 116.375 217.87 116.105C217.53 115.842 217.129 115.646 216.666 115.517C216.203 115.382 215.702 115.314 215.163 115.314C214.571 115.314 214.041 115.396 213.572 115.561C213.109 115.725 212.717 115.938 212.395 116.202C212.066 116.472 211.814 116.773 211.639 117.107C211.469 117.441 211.381 117.781 211.375 118.127H213.01C213.01 117.928 213.057 117.737 213.15 117.556C213.25 117.368 213.388 117.207 213.563 117.072C213.739 116.938 213.953 116.829 214.205 116.747C214.463 116.665 214.753 116.624 215.075 116.624C215.421 116.624 215.731 116.668 216.007 116.756C216.288 116.844 216.525 116.967 216.719 117.125C216.912 117.289 217.062 117.485 217.167 117.714C217.272 117.942 217.325 118.2 217.325 118.487V119.234H215.55C214.888 119.234 214.287 119.299 213.748 119.428C213.215 119.557 212.758 119.75 212.377 120.008C211.996 120.271 211.7 120.6 211.489 120.992C211.284 121.385 211.182 121.842 211.182 122.363C211.182 122.762 211.258 123.134 211.41 123.479C211.568 123.819 211.791 124.112 212.078 124.358C212.359 124.61 212.702 124.81 213.106 124.956C213.517 125.103 213.974 125.176 214.478 125.176C214.788 125.176 215.081 125.144 215.356 125.079C215.632 125.015 215.893 124.927 216.139 124.815C216.379 124.704 216.599 124.575 216.798 124.429C217.003 124.282 217.188 124.127 217.352 123.963C217.369 124.162 217.396 124.355 217.431 124.543C217.472 124.725 217.524 124.877 217.589 125ZM214.715 123.761C214.398 123.761 214.12 123.72 213.88 123.638C213.64 123.556 213.44 123.441 213.282 123.295C213.124 123.154 213.004 122.984 212.922 122.785C212.846 122.586 212.808 122.369 212.808 122.135C212.808 121.889 212.852 121.669 212.939 121.476C213.033 121.282 213.168 121.115 213.344 120.975C213.59 120.775 213.921 120.629 214.337 120.535C214.759 120.436 215.251 120.386 215.813 120.386H217.325V122.311C217.231 122.498 217.103 122.68 216.938 122.855C216.774 123.025 216.581 123.178 216.358 123.312C216.13 123.447 215.878 123.556 215.603 123.638C215.327 123.72 215.031 123.761 214.715 123.761ZM228.47 122.478C228.47 122.63 228.44 122.773 228.382 122.908C228.323 123.043 228.238 123.166 228.127 123.277C227.945 123.459 227.693 123.603 227.371 123.708C227.049 123.808 226.671 123.857 226.237 123.857C225.962 123.857 225.684 123.828 225.402 123.77C225.121 123.711 224.866 123.611 224.638 123.471C224.403 123.33 224.207 123.146 224.049 122.917C223.896 122.688 223.809 122.407 223.785 122.073H222.159C222.159 122.478 222.25 122.867 222.432 123.242C222.619 123.617 222.889 123.945 223.24 124.227C223.586 124.514 224.011 124.745 224.515 124.921C225.019 125.091 225.593 125.176 226.237 125.176C226.8 125.176 227.318 125.108 227.793 124.974C228.268 124.839 228.675 124.648 229.015 124.402C229.354 124.156 229.618 123.86 229.806 123.515C229.999 123.169 230.096 122.785 230.096 122.363C230.096 121.971 230.011 121.625 229.841 121.326C229.677 121.027 229.437 120.764 229.12 120.535C228.804 120.312 228.414 120.122 227.951 119.964C227.488 119.8 226.964 119.656 226.378 119.533C225.933 119.445 225.563 119.354 225.271 119.261C224.983 119.167 224.755 119.062 224.585 118.944C224.409 118.827 224.286 118.695 224.216 118.549C224.146 118.402 224.11 118.235 224.11 118.048C224.11 117.866 224.154 117.69 224.242 117.521C224.33 117.351 224.462 117.201 224.638 117.072C224.808 116.943 225.021 116.841 225.279 116.765C225.543 116.688 225.848 116.65 226.193 116.65C226.527 116.65 226.826 116.697 227.09 116.791C227.359 116.885 227.588 117.008 227.775 117.16C227.963 117.312 228.109 117.488 228.215 117.688C228.32 117.881 228.373 118.08 228.373 118.285H229.999C229.999 117.869 229.908 117.482 229.727 117.125C229.551 116.762 229.299 116.445 228.971 116.176C228.643 115.906 228.244 115.695 227.775 115.543C227.307 115.391 226.779 115.314 226.193 115.314C225.648 115.314 225.147 115.388 224.69 115.534C224.239 115.681 223.85 115.88 223.521 116.132C223.193 116.384 222.938 116.68 222.757 117.02C222.575 117.354 222.484 117.714 222.484 118.101C222.484 118.493 222.572 118.839 222.748 119.138C222.924 119.431 223.173 119.686 223.495 119.902C223.812 120.125 224.192 120.315 224.638 120.474C225.089 120.632 225.587 120.767 226.132 120.878C226.577 120.966 226.949 121.065 227.248 121.177C227.547 121.282 227.787 121.399 227.969 121.528C228.15 121.657 228.279 121.801 228.355 121.959C228.432 122.111 228.47 122.284 228.47 122.478ZM233.216 115.49V116.905H236.45V123.594H233.216V125H241.179V123.594H238.076V115.49H233.216ZM236.239 112.994C236.239 113.258 236.318 113.478 236.477 113.653C236.641 113.829 236.887 113.917 237.215 113.917C237.537 113.917 237.78 113.829 237.944 113.653C238.108 113.478 238.19 113.258 238.19 112.994C238.19 112.848 238.167 112.713 238.12 112.59C238.073 112.467 238.003 112.364 237.909 112.282C237.833 112.206 237.736 112.147 237.619 112.106C237.502 112.06 237.367 112.036 237.215 112.036C237.062 112.036 236.925 112.06 236.802 112.106C236.685 112.147 236.588 112.206 236.512 112.282C236.418 112.37 236.348 112.476 236.301 112.599C236.26 112.722 236.239 112.854 236.239 112.994ZM244.026 111.5V112.915H247.261V123.594H244.026V125H251.989V123.594H248.887V111.5H244.026ZM255.347 128.841C255.774 128.841 256.152 128.762 256.48 128.604C256.809 128.445 257.096 128.249 257.342 128.015C257.588 127.78 257.796 127.525 257.966 127.25C258.142 126.975 258.285 126.714 258.396 126.468L263.222 115.49H261.402L258.95 121.66L258.502 122.776L258.08 121.625L255.47 115.49H253.65L257.746 124.552L257.096 125.817C257.037 125.935 256.955 126.084 256.85 126.266C256.75 126.447 256.63 126.623 256.489 126.793C256.343 126.963 256.176 127.109 255.988 127.232C255.807 127.355 255.604 127.417 255.382 127.417C255.3 127.417 255.186 127.411 255.039 127.399C254.898 127.394 254.755 127.385 254.608 127.373L254.345 128.7C254.45 128.724 254.605 128.753 254.811 128.788C255.016 128.823 255.194 128.841 255.347 128.841ZM268.223 123.945C268.223 124.285 268.328 124.575 268.539 124.815C268.756 125.05 269.075 125.167 269.497 125.167C269.913 125.167 270.232 125.05 270.455 124.815C270.678 124.581 270.789 124.291 270.789 123.945C270.789 123.594 270.678 123.298 270.455 123.058C270.238 122.812 269.919 122.688 269.497 122.688C269.069 122.688 268.75 122.812 268.539 123.058C268.328 123.304 268.223 123.6 268.223 123.945Z" fill="#595959"/>
<path fill-rule="evenodd" clip-rule="evenodd" d="M43.6136 51.668C46.5672 48.6791 50.5733 47 54.7504 47H128.25C132.427 47 136.433 48.6791 139.386 51.668C142.34 54.6568 143.999 58.7106 143.999 62.9375V68.1676C144 68.2193 144 68.271 143.999 68.3227V116.062C143.999 120.289 142.34 124.343 139.386 127.332C136.433 130.321 132.427 132 128.25 132H54.7504C50.5733 132 46.5672 130.321 43.6136 127.332C40.6599 124.343 39.0006 120.289 39.0006 116.062V68.3226C38.9998 68.271 38.9998 68.2193 39.0006 68.1676V62.9375C39.0006 58.7106 40.6599 54.6568 43.6136 51.668ZM49.5004 78.1765V116.062C49.5004 117.471 50.0536 118.823 51.0381 119.819C52.0227 120.815 53.358 121.375 54.7504 121.375H128.25C129.642 121.375 130.977 120.815 131.962 119.819C132.946 118.823 133.5 117.471 133.5 116.062V78.1765L100.24 100.614C97.6517 102.361 94.6107 103.293 91.5 103.293C88.3893 103.293 85.3483 102.361 82.7604 100.614L82.7588 100.613L49.5004 78.1765ZM133.5 65.4068L94.4137 91.7745C93.551 92.357 92.5371 92.6678 91.5 92.6678C90.4629 92.6678 89.449 92.357 88.5863 91.7745L49.5004 65.4068V62.9375C49.5004 61.5285 50.0536 60.1773 51.0381 59.181C52.0227 58.1847 53.358 57.625 54.7504 57.625H128.25C129.642 57.625 130.977 58.1847 131.962 59.181C132.946 60.1773 133.5 61.5285 133.5 62.9375V65.4068Z" fill="url(#paint0_linear)"/>
<path d="M87 47C87 40.3726 92.3726 35 99 35H157C163.627 35 169 40.3726 169 47V59C169 65.6274 163.627 71 157 71H99C92.3726 71 87 65.6274 87 59V47Z" fill="url(#paint1_linear)"/>
<path d="M107.632 53.3413L104.48 48.9602H102.121L106.563 54.8053L102 60.7815H104.381L107.676 56.2802L110.972 60.7815H113.33L108.767 54.8053L113.209 48.9602H110.817L107.632 53.3413Z" fill="white"/>
<path d="M116.582 44V45.759H120.638V59.0334H116.582V60.7815H126.567V59.0334H122.677V44H116.582Z" fill="white"/>
<path d="M137.743 57.6459C137.743 57.8353 137.706 58.0137 137.633 58.1812C137.559 58.3488 137.453 58.5017 137.313 58.6401C137.085 58.8659 136.77 59.0443 136.365 59.1754C135.961 59.2993 135.487 59.3612 134.944 59.3612C134.598 59.3612 134.249 59.3248 133.897 59.2519C133.544 59.1791 133.224 59.0553 132.938 58.8805C132.644 58.7057 132.398 58.4762 132.199 58.1922C132.008 57.9081 131.898 57.5585 131.869 57.1433H129.83C129.83 57.6459 129.943 58.1302 130.171 58.5964C130.406 59.0626 130.744 59.4704 131.185 59.8201C131.619 60.1769 132.151 60.4647 132.783 60.6832C133.415 60.8944 134.135 61 134.944 61C135.649 61 136.299 60.9162 136.894 60.7487C137.49 60.5812 138 60.3445 138.426 60.0386C138.853 59.7326 139.183 59.3648 139.418 58.9351C139.661 58.5054 139.782 58.0283 139.782 57.5039C139.782 57.0159 139.676 56.5861 139.462 56.2147C139.257 55.8432 138.955 55.5154 138.559 55.2314C138.162 54.9546 137.673 54.7179 137.093 54.5212C136.512 54.3173 135.855 54.1388 135.12 53.9859C134.562 53.8766 134.099 53.7637 133.731 53.6472C133.371 53.5306 133.085 53.3995 132.872 53.2539C132.651 53.1082 132.497 52.9443 132.409 52.7622C132.32 52.5801 132.276 52.3725 132.276 52.1395C132.276 51.9137 132.331 51.6952 132.442 51.4839C132.552 51.2727 132.717 51.087 132.938 50.9267C133.151 50.7665 133.419 50.639 133.742 50.5443C134.073 50.4497 134.455 50.4023 134.889 50.4023C135.307 50.4023 135.682 50.4606 136.013 50.5771C136.351 50.6937 136.637 50.8466 136.872 51.036C137.108 51.2254 137.291 51.4439 137.423 51.6915C137.556 51.9319 137.622 52.1795 137.622 52.4344H139.661C139.661 51.9173 139.547 51.4366 139.319 50.9923C139.099 50.5407 138.783 50.1474 138.371 49.8123C137.96 49.4773 137.46 49.2151 136.872 49.0257C136.285 48.8363 135.623 48.7416 134.889 48.7416C134.205 48.7416 133.577 48.8327 133.004 49.0148C132.438 49.1969 131.949 49.4445 131.538 49.7577C131.126 50.0709 130.807 50.4387 130.579 50.8612C130.351 51.2763 130.237 51.7243 130.237 52.205C130.237 52.693 130.348 53.1228 130.568 53.4942C130.788 53.8584 131.101 54.1752 131.505 54.4447C131.902 54.7215 132.379 54.9582 132.938 55.1549C133.503 55.3515 134.128 55.5191 134.811 55.6575C135.37 55.7667 135.836 55.8905 136.211 56.0289C136.586 56.16 136.887 56.3057 137.115 56.4659C137.343 56.6262 137.504 56.8046 137.6 57.0013C137.695 57.1907 137.743 57.4055 137.743 57.6459Z" fill="white"/>
<path d="M148.302 53.3413L145.15 48.9602H142.791L147.233 54.8053L142.67 60.7815H145.05L148.346 56.2802L151.641 60.7815H154L149.437 54.8053L153.879 48.9602H151.487L148.302 53.3413Z" fill="white"/>
<defs>
<linearGradient id="paint0_linear" x1="104" y1="35" x2="104" y2="132" gradientUnits="userSpaceOnUse">
<stop stop-color="#056BFF"/>
<stop offset="1" stop-color="#B702FF"/>
</linearGradient>
<linearGradient id="paint1_linear" x1="104" y1="35" x2="104" y2="132" gradientUnits="userSpaceOnUse">
<stop stop-color="#056BFF"/>
<stop offset="1" stop-color="#B702FF"/>
</linearGradient>
</defs>
</svg>
