<svg xmlns="http://www.w3.org/2000/svg" xmlns:xlink="http://www.w3.org/1999/xlink" width="840" height="494.2"><rect width="840" height="494.2" rx="5" ry="5" class="a"/><svg y="0%" x="0%"><circle cx="20" cy="20" r="6" fill="#ff5f58"/><circle cx="40" cy="20" r="6" fill="#ffbd2e"/><circle cx="60" cy="20" r="6" fill="#18c132"/></svg><svg height="434.2" viewBox="0 0 80 43.42" width="800" x="15" xmlns="http://www.w3.org/2000/svg" xmlns:xlink="http://www.w3.org/1999/xlink" y="50"><style>@keyframes k{0%{transform:translateX(0)}1.04%{transform:translateX(-80px)}1.33%{transform:translateX(-240px)}8.28%{transform:translateX(-320px)}9.78%{transform:translateX(-400px)}11.31%{transform:translateX(-480px)}11.72%{transform:translateX(-560px)}13.23%{transform:translateX(-640px)}16.47%{transform:translateX(-720px)}17.85%{transform:translateX(-800px)}19.31%{transform:translateX(-880px)}23.15%{transform:translateX(-960px)}24.11%{transform:translateX(-1040px)}24.45%{transform:translateX(-1120px)}25.35%{transform:translateX(-1200px)}25.76%{transform:translateX(-1280px)}26.24%{transform:translateX(-1360px)}26.52%{transform:translateX(-1440px)}27.48%{transform:translateX(-1520px)}28.72%{transform:translateX(-1600px)}31.14%{transform:translateX(-1680px)}31.48%{transform:translateX(-1760px)}33.61%{transform:translateX(-1840px)}34.49%{transform:translateX(-1920px)}38.99%{transform:translateX(-2000px)}39.74%{transform:translateX(-2080px)}40.02%{transform:translateX(-2160px)}40.78%{transform:translateX(-2240px)}42.08%{transform:translateX(-2320px)}42.98%{transform:translateX(-2400px)}46.22%{transform:translateX(-2560px)}46.23%{transform:translateX(-2640px)}57.65%{transform:translateX(-2720px)}58.57%{transform:translateX(-2800px)}59.48%{transform:translateX(-2880px)}60.4%{transform:translateX(-2960px)}61.32%{transform:translateX(-3040px)}62.23%{transform:translateX(-3120px)}63.15%{transform:translateX(-3200px)}64.07%{transform:translateX(-3280px)}64.99%{transform:translateX(-3360px)}65.91%{transform:translateX(-3440px)}66.83%{transform:translateX(-3520px)}67.74%{transform:translateX(-3600px)}68.66%{transform:translateX(-3680px)}69.58%{transform:translateX(-3760px)}70.5%{transform:translateX(-3840px)}71.42%{transform:translateX(-3920px)}72.34%{transform:translateX(-4000px)}73.25%{transform:translateX(-4080px)}74.17%{transform:translateX(-4160px)}75.09%{transform:translateX(-4240px)}76%{transform:translateX(-4320px)}76.92%{transform:translateX(-4400px)}77.84%{transform:translateX(-4480px)}78.76%{transform:translateX(-4560px)}79.68%{transform:translateX(-4640px)}80.6%{transform:translateX(-4720px)}81.58%{transform:translateX(-4800px)}82.44%{transform:translateX(-4880px)}83.37%{transform:translateX(-4960px)}84.27%{transform:translateX(-5040px)}85.19%{transform:translateX(-5120px)}86.21%{transform:translateX(-5200px)}87.02%{transform:translateX(-5280px)}87.13%{transform:translateX(-5440px)}87.42%{transform:translateX(-5680px)}to{transform:translateX(-5760px)}}.a{fill:#282d35}.g,.h{fill:#b9bfca;white-space:pre}.h{fill:#b9c0cb}</style><g font-family="Monaco,Consolas,Menlo,'Bitstream Vera Sans Mono','Powerline Symbols',monospace" font-size="1.67"><defs><symbol id="1"><text y="1.67" style="white-space:pre" fill="#71bef2" font-weight="700">~</text></symbol><symbol id="2"><text y="1.67" class="g">▶</text></symbol><symbol id="3"><text y="1.67" class="g">▶</text><text x="2.004" y="1.67" class="h">xlsx-mxlookup</text><text x="16.032" y="1.67" class="h">-input</text></symbol><symbol id="4"><text y="1.67" class="g">▶</text><text x="2.004" y="1.67" class="h">xlsx-mxlookup</text><text x="16.032" y="1.67" class="h">-input</text><text x="23.046" y="1.67" class="h">./domains.xlsx</text><text x="38.076" y="1.67" class="h">-col</text></symbol><symbol id="5"><text y="1.67" class="g">▶</text><text x="2.004" y="1.67" class="h">xlsx-mxlookup</text><text x="16.032" y="1.67" class="h">-input</text><text x="23.046" y="1.67" class="h">./domains.xlsx</text><text x="38.076" y="1.67" class="h">-col</text><text x="43.086" y="1.67" class="h">7</text></symbol><symbol id="6"><text y="1.67" class="h">14027</text><text x="6.012" y="1.67" class="h">/</text><text x="8.016" y="1.67" class="h">14028</text><text x="14.028" y="1.67" class="h">[--------------------------------------------------&gt;]</text><text x="68.136" y="1.67" class="h">99.99%</text><text x="75.15" y="1.67" class="h">?</text><text x="77.154" y="1.67" class="h">p/s</text></symbol><symbol id="7"><text y="1.67" class="h">14027</text><text x="6.012" y="1.67" class="h">/</text><text x="8.016" y="1.67" class="h">14028</text><text x="14.028" y="1.67" class="h">[------------------------------------------------&gt;]</text><text x="66.132" y="1.67" class="h">99.99%</text><text x="73.146" y="1.67" class="h">361</text><text x="77.154" y="1.67" class="h">p/s</text></symbol><symbol id="8"><text y="1.67" class="h">14027</text><text x="6.012" y="1.67" class="h">/</text><text x="8.016" y="1.67" class="h">14028</text><text x="14.028" y="1.67" class="h">[------------------------------------------------&gt;]</text><text x="66.132" y="1.67" class="h">99.99%</text><text x="73.146" y="1.67" class="h">338</text><text x="77.154" y="1.67" class="h">p/s</text></symbol><symbol id="9"><text y="1.67" class="h">14027</text><text x="6.012" y="1.67" class="h">/</text><text x="8.016" y="1.67" class="h">14028</text><text x="14.028" y="1.67" class="h">[------------------------------------------------&gt;]</text><text x="66.132" y="1.67" class="h">99.99%</text><text x="73.146" y="1.67" class="h">316</text><text x="77.154" y="1.67" class="h">p/s</text></symbol><symbol id="10"><text y="1.67" class="h">14027</text><text x="6.012" y="1.67" class="h">/</text><text x="8.016" y="1.67" class="h">14028</text><text x="14.028" y="1.67" class="h">[------------------------------------------------&gt;]</text><text x="66.132" y="1.67" class="h">99.99%</text><text x="73.146" y="1.67" class="h">296</text><text x="77.154" y="1.67" class="h">p/s</text></symbol><symbol id="11"><text y="1.67" class="h">14027</text><text x="6.012" y="1.67" class="h">/</text><text x="8.016" y="1.67" class="h">14028</text><text x="14.028" y="1.67" class="h">[------------------------------------------------&gt;]</text><text x="66.132" y="1.67" class="h">99.99%</text><text x="73.146" y="1.67" class="h">277</text><text x="77.154" y="1.67" class="h">p/s</text></symbol><symbol id="12"><text y="1.67" class="h">14027</text><text x="6.012" y="1.67" class="h">/</text><text x="8.016" y="1.67" class="h">14028</text><text x="14.028" y="1.67" class="h">[------------------------------------------------&gt;]</text><text x="66.132" y="1.67" class="h">99.99%</text><text x="73.146" y="1.67" class="h">259</text><text x="77.154" y="1.67" class="h">p/s</text></symbol><symbol id="13"><text y="1.67" class="h">14027</text><text x="6.012" y="1.67" class="h">/</text><text x="8.016" y="1.67" class="h">14028</text><text x="14.028" y="1.67" class="h">[------------------------------------------------&gt;]</text><text x="66.132" y="1.67" class="h">99.99%</text><text x="73.146" y="1.67" class="h">242</text><text x="77.154" y="1.67" class="h">p/s</text></symbol><symbol id="14"><text y="1.67" class="h">14028</text><text x="6.012" y="1.67" class="h">/</text><text x="8.016" y="1.67" class="h">14028</text><text x="14.028" y="1.67" class="h">[-----------------------------------------------&gt;]</text><text x="65.13" y="1.67" class="h">100.00%</text><text x="73.146" y="1.67" class="h">226</text><text x="77.154" y="1.67" class="h">p/s</text></symbol><symbol id="15"><text y="1.67" class="h">14028</text><text x="6.012" y="1.67" class="h">/</text><text x="8.016" y="1.67" class="h">14028</text><text x="14.028" y="1.67" class="h">[-----------------------------------------------&gt;]</text><text x="65.13" y="1.67" class="h">100.00%</text><text x="73.146" y="1.67" class="h">212</text><text x="77.154" y="1.67" class="h">p/s</text></symbol><symbol id="16"><text y="1.67" class="h">14028</text><text x="6.012" y="1.67" class="h">/</text><text x="8.016" y="1.67" class="h">14028</text><text x="14.028" y="1.67" class="h">[-----------------------------------------------&gt;]</text><text x="65.13" y="1.67" class="h">100.00%</text><text x="73.146" y="1.67" class="h">198</text><text x="77.154" y="1.67" class="h">p/s</text></symbol><symbol id="a"><path fill="transparent" d="M0 0h80v20H0z"/></symbol><symbol id="b"><path fill="#6f7683" d="M0 0h1.102v2.171H0z"/></symbol></defs><path class="a" d="M0 0h80v43.42H0z"/><g style="animation-duration:21.784693s;animation-iteration-count:infinite;animation-name:k;animation-timing-function:steps(1,end)"><svg width="5840"><svg><use xlink:href="#a"/><use xlink:href="#b" x="-.004"/></svg><svg x="80"><use xlink:href="#a"/><use xlink:href="#b" x="-.004"/></svg><svg x="160"><use xlink:href="#a"/><use xlink:href="#b" x="1.996" y="4.317"/><use xlink:href="#1" y="2.171"/><use xlink:href="#2" y="4.342"/></svg><svg x="240"><use xlink:href="#a"/><use xlink:href="#b" x="1.996" y="4.317"/><use xlink:href="#1" y="2.171"/><use xlink:href="#2" y="4.342"/></svg><svg x="320"><use xlink:href="#a"/><use xlink:href="#b" x="2.996" y="4.317"/><use xlink:href="#1" y="2.171"/><text y="6.012" class="g">▶</text><text x="2.004" y="6.012" class="h">x</text></svg><svg x="400"><use xlink:href="#a"/><use xlink:href="#b" x="3.996" y="4.317"/><use xlink:href="#1" y="2.171"/><text y="6.012" class="g">▶</text><text x="2.004" y="6.012" class="h">xl</text></svg><svg x="480"><use xlink:href="#a"/><use xlink:href="#b" x="4.996" y="4.317"/><use xlink:href="#1" y="2.171"/><text y="6.012" class="g">▶</text><text x="2.004" y="6.012" class="h">xls</text></svg><svg x="560"><use xlink:href="#a"/><use xlink:href="#b" x="5.996" y="4.317"/><use xlink:href="#1" y="2.171"/><text y="6.012" class="g">▶</text><text x="2.004" y="6.012" class="h">xlsx</text></svg><svg x="640"><use xlink:href="#a"/><use xlink:href="#b" x="6.996" y="4.317"/><use xlink:href="#1" y="2.171"/><text y="6.012" class="g">▶</text><text x="2.004" y="6.012" class="h">xlsx-</text></svg><svg x="720"><use xlink:href="#a"/><use xlink:href="#b" x="7.996" y="4.317"/><use xlink:href="#1" y="2.171"/><text y="6.012" class="g">▶</text><text x="2.004" y="6.012" class="h">xlsx-m</text></svg><svg x="800"><use xlink:href="#a"/><use xlink:href="#b" x="8.996" y="4.317"/><use xlink:href="#1" y="2.171"/><text y="6.012" class="g">▶</text><text x="2.004" y="6.012" class="h">xlsx-mx</text></svg><svg x="880"><use xlink:href="#a"/><use xlink:href="#b" x="15.996" y="4.317"/><use xlink:href="#1" y="2.171"/><text y="6.012" class="g">▶</text><text x="2.004" y="6.012" class="h">xlsx-mxlookup</text></svg><svg x="960"><use xlink:href="#a"/><use xlink:href="#b" x="16.996" y="4.317"/><use xlink:href="#1" y="2.171"/><text y="6.012" class="g">▶</text><text x="2.004" y="6.012" class="h">xlsx-mxlookup</text><text x="16.032" y="6.012" class="h">-</text></svg><svg x="1040"><use xlink:href="#a"/><use xlink:href="#b" x="17.996" y="4.317"/><use xlink:href="#1" y="2.171"/><text y="6.012" class="g">▶</text><text x="2.004" y="6.012" class="h">xlsx-mxlookup</text><text x="16.032" y="6.012" class="h">-i</text></svg><svg x="1120"><use xlink:href="#a"/><use xlink:href="#b" x="18.996" y="4.317"/><use xlink:href="#1" y="2.171"/><text y="6.012" class="g">▶</text><text x="2.004" y="6.012" class="h">xlsx-mxlookup</text><text x="16.032" y="6.012" class="h">-in</text></svg><svg x="1200"><use xlink:href="#a"/><use xlink:href="#b" x="19.996" y="4.317"/><use xlink:href="#1" y="2.171"/><text y="6.012" class="g">▶</text><text x="2.004" y="6.012" class="h">xlsx-mxlookup</text><text x="16.032" y="6.012" class="h">-inp</text></svg><svg x="1280"><use xlink:href="#a"/><use xlink:href="#b" x="20.996" y="4.317"/><use xlink:href="#1" y="2.171"/><text y="6.012" class="g">▶</text><text x="2.004" y="6.012" class="h">xlsx-mxlookup</text><text x="16.032" y="6.012" class="h">-inpu</text></svg><svg x="1360"><use xlink:href="#a"/><use xlink:href="#b" x="21.996" y="4.317"/><use xlink:href="#1" y="2.171"/><use xlink:href="#3" y="4.342"/></svg><svg x="1440"><use xlink:href="#a"/><use xlink:href="#b" x="22.996" y="4.317"/><use xlink:href="#1" y="2.171"/><use xlink:href="#3" y="4.342"/></svg><svg x="1520"><use xlink:href="#a"/><use xlink:href="#b" x="23.996" y="4.317"/><use xlink:href="#1" y="2.171"/><text y="6.012" class="g">▶</text><text x="2.004" y="6.012" class="h">xlsx-mxlookup</text><text x="16.032" y="6.012" class="h">-input</text><text x="23.046" y="6.012" class="h">.</text></svg><svg x="1600"><use xlink:href="#a"/><use xlink:href="#b" x="24.996" y="4.317"/><use xlink:href="#1" y="2.171"/><text y="6.012" class="g">▶</text><text x="2.004" y="6.012" class="h">xlsx-mxlookup</text><text x="16.032" y="6.012" class="h">-input</text><text x="23.046" y="6.012" class="h">./</text></svg><svg x="1680"><use xlink:href="#a"/><use xlink:href="#b" x="25.996" y="4.317"/><use xlink:href="#1" y="2.171"/><text y="6.012" class="g">▶</text><text x="2.004" y="6.012" class="h">xlsx-mxlookup</text><text x="16.032" y="6.012" class="h">-input</text><text x="23.046" y="6.012" class="h">./d</text></svg><svg x="1760"><use xlink:href="#a"/><use xlink:href="#b" x="26.996" y="4.317"/><use xlink:href="#1" y="2.171"/><text y="6.012" class="g">▶</text><text x="2.004" y="6.012" class="h">xlsx-mxlookup</text><text x="16.032" y="6.012" class="h">-input</text><text x="23.046" y="6.012" class="h">./do</text></svg><svg x="1840"><use xlink:href="#a"/><use xlink:href="#b" x="27.996" y="4.317"/><use xlink:href="#1" y="2.171"/><text y="6.012" class="g">▶</text><text x="2.004" y="6.012" class="h">xlsx-mxlookup</text><text x="16.032" y="6.012" class="h">-input</text><text x="23.046" y="6.012" class="h">./dom</text></svg><svg x="1920"><use xlink:href="#a"/><use xlink:href="#b" x="37.996" y="4.317"/><use xlink:href="#1" y="2.171"/><text y="6.012" class="g">▶</text><text x="2.004" y="6.012" class="h">xlsx-mxlookup</text><text x="16.032" y="6.012" class="h">-input</text><text x="23.046" y="6.012" class="h">./domains.xlsx</text></svg><svg x="2000"><use xlink:href="#a"/><use xlink:href="#b" x="38.996" y="4.317"/><use xlink:href="#1" y="2.171"/><text y="6.012" class="g">▶</text><text x="2.004" y="6.012" class="h">xlsx-mxlookup</text><text x="16.032" y="6.012" class="h">-input</text><text x="23.046" y="6.012" class="h">./domains.xlsx</text><text x="38.076" y="6.012" class="h">-</text></svg><svg x="2080"><use xlink:href="#a"/><use xlink:href="#b" x="39.996" y="4.317"/><use xlink:href="#1" y="2.171"/><text y="6.012" class="g">▶</text><text x="2.004" y="6.012" class="h">xlsx-mxlookup</text><text x="16.032" y="6.012" class="h">-input</text><text x="23.046" y="6.012" class="h">./domains.xlsx</text><text x="38.076" y="6.012" class="h">-c</text></svg><svg x="2160"><use xlink:href="#a"/><use xlink:href="#b" x="40.996" y="4.317"/><use xlink:href="#1" y="2.171"/><text y="6.012" class="g">▶</text><text x="2.004" y="6.012" class="h">xlsx-mxlookup</text><text x="16.032" y="6.012" class="h">-input</text><text x="23.046" y="6.012" class="h">./domains.xlsx</text><text x="38.076" y="6.012" class="h">-co</text></svg><svg x="2240"><use xlink:href="#a"/><use xlink:href="#b" x="41.996" y="4.317"/><use xlink:href="#1" y="2.171"/><use xlink:href="#4" y="4.342"/></svg><svg x="2320"><use xlink:href="#a"/><use xlink:href="#b" x="42.996" y="4.317"/><use xlink:href="#1" y="2.171"/><use xlink:href="#4" y="4.342"/></svg><svg x="2400"><use xlink:href="#a"/><use xlink:href="#b" x="43.996" y="4.317"/><use xlink:href="#1" y="2.171"/><use xlink:href="#5" y="4.342"/></svg><svg x="2480"><use xlink:href="#a"/><use xlink:href="#b" x="43.996" y="4.317"/><use xlink:href="#1" y="2.171"/><use xlink:href="#5" y="4.342"/></svg><svg x="2560"><use xlink:href="#a"/><use xlink:href="#b" x="-.004" y="6.488"/><use xlink:href="#1" y="2.171"/><use xlink:href="#5" y="4.342"/></svg><svg x="2640"><use xlink:href="#a"/><use xlink:href="#b" x="-.004" y="6.488"/><use xlink:href="#1" y="2.171"/><use xlink:href="#5" y="4.342"/></svg><svg x="2720"><use xlink:href="#a"/><use xlink:href="#b" x="79.996" y="6.488"/><use xlink:href="#1" y="2.171"/><use xlink:href="#5" y="4.342"/><text y="8.183" class="h">13810</text><text x="6.012" y="8.183" class="h">/</text><text x="8.016" y="8.183" class="h">14028</text><text x="14.028" y="8.183" class="h">[--------------------------------------------------&gt;]</text><text x="68.136" y="8.183" class="h">98.45%</text><text x="75.15" y="8.183" class="h">?</text><text x="77.154" y="8.183" class="h">p/s</text></svg><svg x="2800"><use xlink:href="#a"/><use xlink:href="#b" x="79.996" y="6.488"/><use xlink:href="#1" y="2.171"/><use xlink:href="#5" y="4.342"/><use xlink:href="#6" y="6.513"/></svg><svg x="2880"><use xlink:href="#a"/><use xlink:href="#b" x="79.996" y="6.488"/><use xlink:href="#1" y="2.171"/><use xlink:href="#5" y="4.342"/><use xlink:href="#6" y="6.513"/></svg><svg x="2960"><use xlink:href="#a"/><use xlink:href="#b" x="79.996" y="6.488"/><use xlink:href="#1" y="2.171"/><use xlink:href="#5" y="4.342"/><use xlink:href="#7" y="6.513"/></svg><svg x="3040"><use xlink:href="#a"/><use xlink:href="#b" x="79.996" y="6.488"/><use xlink:href="#1" y="2.171"/><use xlink:href="#5" y="4.342"/><use xlink:href="#7" y="6.513"/></svg><svg x="3120"><use xlink:href="#a"/><use xlink:href="#b" x="79.996" y="6.488"/><use xlink:href="#1" y="2.171"/><use xlink:href="#5" y="4.342"/><use xlink:href="#7" y="6.513"/></svg><svg x="3200"><use xlink:href="#a"/><use xlink:href="#b" x="79.996" y="6.488"/><use xlink:href="#1" y="2.171"/><use xlink:href="#5" y="4.342"/><use xlink:href="#8" y="6.513"/></svg><svg x="3280"><use xlink:href="#a"/><use xlink:href="#b" x="79.996" y="6.488"/><use xlink:href="#1" y="2.171"/><use xlink:href="#5" y="4.342"/><use xlink:href="#8" y="6.513"/></svg><svg x="3360"><use xlink:href="#a"/><use xlink:href="#b" x="79.996" y="6.488"/><use xlink:href="#1" y="2.171"/><use xlink:href="#5" y="4.342"/><use xlink:href="#8" y="6.513"/></svg><svg x="3440"><use xlink:href="#a"/><use xlink:href="#b" x="79.996" y="6.488"/><use xlink:href="#1" y="2.171"/><use xlink:href="#5" y="4.342"/><use xlink:href="#9" y="6.513"/></svg><svg x="3520"><use xlink:href="#a"/><use xlink:href="#b" x="79.996" y="6.488"/><use xlink:href="#1" y="2.171"/><use xlink:href="#5" y="4.342"/><use xlink:href="#9" y="6.513"/></svg><svg x="3600"><use xlink:href="#a"/><use xlink:href="#b" x="79.996" y="6.488"/><use xlink:href="#1" y="2.171"/><use xlink:href="#5" y="4.342"/><use xlink:href="#9" y="6.513"/></svg><svg x="3680"><use xlink:href="#a"/><use xlink:href="#b" x="79.996" y="6.488"/><use xlink:href="#1" y="2.171"/><use xlink:href="#5" y="4.342"/><use xlink:href="#10" y="6.513"/></svg><svg x="3760"><use xlink:href="#a"/><use xlink:href="#b" x="79.996" y="6.488"/><use xlink:href="#1" y="2.171"/><use xlink:href="#5" y="4.342"/><use xlink:href="#10" y="6.513"/></svg><svg x="3840"><use xlink:href="#a"/><use xlink:href="#b" x="79.996" y="6.488"/><use xlink:href="#1" y="2.171"/><use xlink:href="#5" y="4.342"/><use xlink:href="#10" y="6.513"/></svg><svg x="3920"><use xlink:href="#a"/><use xlink:href="#b" x="79.996" y="6.488"/><use xlink:href="#1" y="2.171"/><use xlink:href="#5" y="4.342"/><use xlink:href="#11" y="6.513"/></svg><svg x="4000"><use xlink:href="#a"/><use xlink:href="#b" x="79.996" y="6.488"/><use xlink:href="#1" y="2.171"/><use xlink:href="#5" y="4.342"/><use xlink:href="#11" y="6.513"/></svg><svg x="4080"><use xlink:href="#a"/><use xlink:href="#b" x="79.996" y="6.488"/><use xlink:href="#1" y="2.171"/><use xlink:href="#5" y="4.342"/><use xlink:href="#11" y="6.513"/></svg><svg x="4160"><use xlink:href="#a"/><use xlink:href="#b" x="79.996" y="6.488"/><use xlink:href="#1" y="2.171"/><use xlink:href="#5" y="4.342"/><use xlink:href="#12" y="6.513"/></svg><svg x="4240"><use xlink:href="#a"/><use xlink:href="#b" x="79.996" y="6.488"/><use xlink:href="#1" y="2.171"/><use xlink:href="#5" y="4.342"/><use xlink:href="#12" y="6.513"/></svg><svg x="4320"><use xlink:href="#a"/><use xlink:href="#b" x="79.996" y="6.488"/><use xlink:href="#1" y="2.171"/><use xlink:href="#5" y="4.342"/><use xlink:href="#12" y="6.513"/></svg><svg x="4400"><use xlink:href="#a"/><use xlink:href="#b" x="79.996" y="6.488"/><use xlink:href="#1" y="2.171"/><use xlink:href="#5" y="4.342"/><use xlink:href="#13" y="6.513"/></svg><svg x="4480"><use xlink:href="#a"/><use xlink:href="#b" x="79.996" y="6.488"/><use xlink:href="#1" y="2.171"/><use xlink:href="#5" y="4.342"/><use xlink:href="#13" y="6.513"/></svg><svg x="4560"><use xlink:href="#a"/><use xlink:href="#b" x="79.996" y="6.488"/><use xlink:href="#1" y="2.171"/><use xlink:href="#5" y="4.342"/><use xlink:href="#13" y="6.513"/></svg><svg x="4640"><use xlink:href="#a"/><use xlink:href="#b" x="79.996" y="6.488"/><use xlink:href="#1" y="2.171"/><use xlink:href="#5" y="4.342"/><text y="8.183" class="h">14027</text><text x="6.012" y="8.183" class="h">/</text><text x="8.016" y="8.183" class="h">14028</text><text x="14.028" y="8.183" class="h">[------------------------------------------------&gt;]</text><text x="66.132" y="8.183" class="h">99.99%</text><text x="73.146" y="8.183" class="h">226</text><text x="77.154" y="8.183" class="h">p/s</text></svg><svg x="4720"><use xlink:href="#a"/><use xlink:href="#b" x="79.996" y="6.488"/><use xlink:href="#1" y="2.171"/><use xlink:href="#5" y="4.342"/><use xlink:href="#14" y="6.513"/></svg><svg x="4800"><use xlink:href="#a"/><use xlink:href="#b" x="79.996" y="6.488"/><use xlink:href="#1" y="2.171"/><use xlink:href="#5" y="4.342"/><use xlink:href="#14" y="6.513"/></svg><svg x="4880"><use xlink:href="#a"/><use xlink:href="#b" x="79.996" y="6.488"/><use xlink:href="#1" y="2.171"/><use xlink:href="#5" y="4.342"/><use xlink:href="#15" y="6.513"/></svg><svg x="4960"><use xlink:href="#a"/><use xlink:href="#b" x="79.996" y="6.488"/><use xlink:href="#1" y="2.171"/><use xlink:href="#5" y="4.342"/><use xlink:href="#15" y="6.513"/></svg><svg x="5040"><use xlink:href="#a"/><use xlink:href="#b" x="79.996" y="6.488"/><use xlink:href="#1" y="2.171"/><use xlink:href="#5" y="4.342"/><use xlink:href="#15" y="6.513"/></svg><svg x="5120"><use xlink:href="#a"/><use xlink:href="#b" x="79.996" y="6.488"/><use xlink:href="#1" y="2.171"/><use xlink:href="#5" y="4.342"/><use xlink:href="#16" y="6.513"/></svg><svg x="5200"><use xlink:href="#a"/><use xlink:href="#b" x="79.996" y="6.488"/><use xlink:href="#1" y="2.171"/><use xlink:href="#5" y="4.342"/><use xlink:href="#16" y="6.513"/></svg><svg x="5280"><use xlink:href="#a"/><use xlink:href="#b" x="79.996" y="6.488"/><use xlink:href="#1" y="2.171"/><use xlink:href="#5" y="4.342"/><use xlink:href="#16" y="6.513"/></svg><svg x="5360"><use xlink:href="#a"/><use xlink:href="#b" x="-.004" y="8.659"/><use xlink:href="#1" y="2.171"/><use xlink:href="#5" y="4.342"/><use xlink:href="#16" y="6.513"/></svg><svg x="5440"><use xlink:href="#a"/><use xlink:href="#b" x="-.004" y="8.659"/><use xlink:href="#1" y="2.171"/><use xlink:href="#5" y="4.342"/><use xlink:href="#16" y="6.513"/></svg><svg x="5520"><use xlink:href="#a"/><use xlink:href="#b" x="1.996" y="13.001"/><use xlink:href="#1" y="2.171"/><use xlink:href="#5" y="4.342"/><use xlink:href="#16" y="6.513"/><use xlink:href="#1" y="10.855"/><use xlink:href="#2" y="13.026"/></svg><svg x="5600"><use xlink:href="#a"/><use xlink:href="#b" x="1.996" y="13.001"/><use xlink:href="#1" y="2.171"/><use xlink:href="#5" y="4.342"/><use xlink:href="#16" y="6.513"/><use xlink:href="#1" y="10.855"/><use xlink:href="#2" y="13.026"/></svg><svg x="5680"><use xlink:href="#a"/><use xlink:href="#b" x="1.996" y="13.001"/><use xlink:href="#1" y="2.171"/><use xlink:href="#5" y="4.342"/><use xlink:href="#16" y="6.513"/><use xlink:href="#1" y="10.855"/><use xlink:href="#2" y="13.026"/></svg><svg x="5760"><use xlink:href="#a"/><use xlink:href="#b" x="-.004" y="15.172"/><use xlink:href="#1" y="2.171"/><use xlink:href="#5" y="4.342"/><use xlink:href="#16" y="6.513"/><use xlink:href="#1" y="10.855"/><use xlink:href="#2" y="13.026"/></svg></svg></g></g></svg></svg>